<?xml version="1.0" encoding="utf-8"?>
<svg version="1.2" baseProfile="tiny" id="Layer_1" xmlns="http://www.w3.org/2000/svg" xmlns:xlink="http://www.w3.org/1999/xlink"
	 x="0px" y="0px" viewBox="0 0 24 24" xml:space="preserve">
<path fill="none" d="M0,0h24v24H0V0z"/>
<g>
	<path d="M19.4,5.7v2.3h-3.6l-0.3,4.7c-0.1,0.8-0.1,1.5-0.1,2.1c0,1.4,0.2,2.3,0.5,2.6s0.7,0.5,1.2,0.5c1,0,1.6-0.6,1.8-1.9h0.6
		c-0.3,2.9-1.5,4.3-3.4,4.3c-0.9,0-1.6-0.3-2.2-0.8S13,18.1,13,17c0-0.7,0.1-2.3,0.3-4.6l0.4-4.5h-3.3c-0.2,3.8-0.5,6.5-0.8,8.2
		c-0.3,1.7-0.6,2.9-1,3.4c-0.4,0.5-0.9,0.8-1.5,0.8c-0.5,0-0.9-0.1-1.2-0.4s-0.5-0.6-0.5-1.1c0-0.4,0.3-1,0.8-1.8
		c0.8-1.1,1.4-2.2,1.8-3.4c0.4-1.2,0.7-3.1,0.9-5.7H8C7.1,7.9,6.5,8.1,6,8.5c-0.5,0.4-0.9,0.9-1.3,1.6H4.2c0.3-1.1,0.7-2,1.2-2.7
		s1-1.2,1.5-1.4s1.4-0.3,2.7-0.3H19.4z"/>
</g>
</svg>
