<?xml version="1.0" encoding="utf-8"?>
<svg version="1.2" baseProfile="tiny" id="Layer_1" xmlns="http://www.w3.org/2000/svg" xmlns:xlink="http://www.w3.org/1999/xlink"
	 width="24" height="24" viewBox="0 0 24 24" xml:space="preserve">
<path fill="none" d="M0,0h24v24H0V0z"/>
<path d="M15.5,14h-0.8l-0.3-0.3c1-1.1,1.6-2.6,1.6-4.2C16,5.9,13.1,3,9.5,3S3,5.9,3,9.5S5.9,16,9.5,16c1.6,0,3.1-0.6,4.2-1.6
	l0.3,0.3v0.8l5,5l1.5-1.5L15.5,14z M9.5,14C7,14,5,12,5,9.5S7,5,9.5,5S14,7,14,9.5S12,14,9.5,14z"/>
<g>
	<path d="M11.8,12.8H7.3v-1.2h1.4V8H7.3V6.9c0.2,0,0.4,0,0.6,0c0.2,0,0.4-0.1,0.5-0.1c0.1-0.1,0.3-0.2,0.3-0.3
		C8.9,6.3,8.9,6.2,8.9,6h1.5v5.6h1.4V12.8z"/>
</g>
</svg>
