/* XPM */
static char * notepadqq_32x32_xpm[] = {
"32 32 315 2",
"  	c None",
". 	c #E8E8E8",
"+ 	c #FEFEFE",
"@ 	c #FDFEFC",
"# 	c #FCFDFB",
"$ 	c #FBFDFA",
"% 	c #FAFCF8",
"& 	c #F9FCF7",
"* 	c #F8FBF6",
"= 	c #F7FBF4",
"- 	c #F5FAF3",
"; 	c #F4F9F2",
"> 	c #F3F9F0",
", 	c #F2F8EF",
"' 	c #F1F8ED",
") 	c #F0F7EC",
"! 	c #EFF7EB",
"~ 	c #EEF6E9",
"{ 	c #EDF6E8",
"] 	c #ECF5E7",
"^ 	c #EBF5E5",
"/ 	c #E9F4E4",
"( 	c #E9F4E3",
"_ 	c #D6E0D2",
": 	c #E6E6E6",
"< 	c #FCFDFC",
"[ 	c #FBFDFB",
"} 	c #FAFCF9",
"| 	c #F9FCF8",
"1 	c #F8FBF7",
"2 	c #F7FBF5",
"3 	c #F6FAF4",
"4 	c #F5FAF2",
"5 	c #F4F9F1",
"6 	c #EFF7EA",
"7 	c #ECF5E8",
"8 	c #EBF5E6",
"9 	c #E8F3E2",
"0 	c #E7F3E1",
"a 	c #D5E0D0",
"b 	c #787878",
"c 	c #1F1F1F",
"d 	c #E5E6E5",
"e 	c #F1F8EE",
"f 	c #EEF6EA",
"g 	c #EDF6E9",
"h 	c #EAF4E4",
"i 	c #E7F3E0",
"j 	c #E6F2DF",
"k 	c #D3E0CE",
"l 	c #E4E4E4",
"m 	c #A1A1A1",
"n 	c #E3E5E3",
"o 	c #E6F2E0",
"p 	c #E5F2DF",
"q 	c #E4F1DD",
"r 	c #D1DECB",
"s 	c #B6B6B6",
"t 	c #D6D6D6",
"u 	c #E3E5E1",
"v 	c #F6FAF3",
"w 	c #F2F8EE",
"x 	c #E5F2DE",
"y 	c #E4F1DC",
"z 	c #E3F1DB",
"A 	c #D0DEC9",
"B 	c #606060",
"C 	c #8F8F8F",
"D 	c #E1E5DF",
"E 	c #E8F3E1",
"F 	c #E3F1DC",
"G 	c #E2F0DB",
"H 	c #E1F0D9",
"I 	c #D0DCC8",
"J 	c #2D2D2D",
"K 	c #080808",
"L 	c #DFE3DD",
"M 	c #EAF4E5",
"N 	c #E2F0DA",
"O 	c #E0EFD7",
"P 	c #CEDCC6",
"Q 	c #1C1C1C",
"R 	c #040404",
"S 	c #DDE3DB",
"T 	c #E5F2DD",
"U 	c #E0EFD8",
"V 	c #DFEFD7",
"W 	c #DEEED5",
"X 	c #CAD9C2",
"Y 	c #313131",
"Z 	c #0B0B0B",
"` 	c #DDE3D9",
" .	c #DFEFD6",
"..	c #DDEED3",
"+.	c #8E9687",
"@.	c #212121",
"#.	c #000000",
"$.	c #DBE1D7",
"%.	c #DDEED4",
"&.	c #DCEDD3",
"*.	c #DAECD1",
"=.	c #4D504C",
"-.	c #0E0E0E",
";.	c #D9E1D5",
">.	c #DCEDD2",
",.	c #DBEDD1",
"'.	c #ACB9A5",
").	c #242524",
"!.	c #D7DFD4",
"~.	c #DBEDD2",
"{.	c #DAECD0",
"].	c #D9ECCF",
"^.	c #636860",
"/.	c #1B1B1A",
"(.	c #D7DFD2",
"_.	c #D3E4CD",
":.	c #A3C49A",
"<.	c #B2CDA9",
"[.	c #A2C39A",
"}.	c #D3E6CD",
"|.	c #E1EFDA",
"1.	c #A3C39A",
"2.	c #A9C89F",
"3.	c #ABC9A1",
"4.	c #DCEDD4",
"5.	c #9FC195",
"6.	c #9FC295",
"7.	c #A5C69A",
"8.	c #A7C89C",
"9.	c #AEBCA6",
"0.	c #2A2A2A",
"a.	c #3F443B",
"b.	c #D5DFD2",
"c.	c #D1E3CB",
"d.	c #A9C7A1",
"e.	c #D2E5CB",
"f.	c #B0CCA7",
"g.	c #C0D8B7",
"h.	c #B9D3AF",
"i.	c #BDD7B4",
"j.	c #AAC99F",
"k.	c #BBD6B1",
"l.	c #B5D1AA",
"m.	c #B8D4AF",
"n.	c #A6C79A",
"o.	c #D8EBCE",
"p.	c #D7EBCC",
"q.	c #6B7167",
"r.	c #212220",
"s.	c #96A38D",
"t.	c #D4DDD0",
"u.	c #D0E3C9",
"v.	c #B5D0AC",
"w.	c #D8E9D0",
"x.	c #AAC8A1",
"y.	c #B3CFA9",
"z.	c #C8DEBF",
"A.	c #CCE1C3",
"B.	c #A9C89E",
"C.	c #AFCDA5",
"D.	c #C3DCB8",
"E.	c #C7E0BD",
"F.	c #A5C699",
"G.	c #B0C0A8",
"H.	c #2F302F",
"I.	c #555D51",
"J.	c #C2D6B8",
"K.	c #D2DDCE",
"L.	c #CFE2C7",
"M.	c #B3CFAB",
"N.	c #D7E8CE",
"O.	c #B6D2AC",
"P.	c #BBD6B0",
"Q.	c #A8C89C",
"R.	c #B1D0A6",
"S.	c #B6D3AB",
"T.	c #A3C597",
"U.	c #D5EACA",
"V.	c #737A6F",
"W.	c #222322",
"X.	c #ABBCA1",
"Y.	c #C2D6B5",
"Z.	c #D2DDCC",
"`.	c #CDE1C6",
" +	c #B2CFA9",
".+	c #D5E7CC",
"++	c #A8C79E",
"@+	c #DBECD2",
"#+	c #9EC194",
"$+	c #A4C699",
"%+	c #A6C79B",
"&+	c #D6EACD",
"*+	c #9BBF8F",
"=+	c #9BC08F",
"-+	c #A0C494",
";+	c #A3C596",
">+	c #B6C7AC",
",+	c #363636",
"'+	c #50574B",
")+	c #D1E8C4",
"!+	c #BED5B3",
"~+	c #D2DBCC",
"{+	c #CBE1C1",
"]+	c #D7EBCD",
"^+	c #D6EACB",
"/+	c #C5DFBA",
"(+	c #A1C595",
"_+	c #788174",
":+	c #232423",
"<+	c #9EB095",
"[+	c #CFE7C2",
"}+	c #BED5B2",
"|+	c #D0DBC8",
"1+	c #C9E0BE",
"2+	c #A4C698",
"3+	c #D4E9C8",
"4+	c #C4DFB8",
"5+	c #90AE85",
"6+	c #3C3D3C",
"7+	c #4B5247",
"8+	c #CEE6C0",
"9+	c #BDD3B0",
"0+	c #CED9C6",
"a+	c #D8EBCD",
"b+	c #D4E9C9",
"c+	c #D3E9C8",
"d+	c #D2E8C6",
"e+	c #D1E8C5",
"f+	c #808A7C",
"g+	c #292928",
"h+	c #96A78D",
"i+	c #CDE6C0",
"j+	c #CCE5BE",
"k+	c #BBD3AF",
"l+	c #D3E9C7",
"m+	c #C1D5B5",
"n+	c #454644",
"o+	c #454B41",
"p+	c #CBE4BE",
"q+	c #CBE5BD",
"r+	c #CBE5BC",
"s+	c #BAD1AD",
"t+	c #CCD9C4",
"u+	c #D5EAC9",
"v+	c #D2E8C7",
"w+	c #D0E7C4",
"x+	c #A3A688",
"y+	c #323230",
"z+	c #8FA186",
"A+	c #CAE4BC",
"B+	c #C9E4BA",
"C+	c #B8D1AC",
"D+	c #CAD7C3",
"E+	c #D0E7C3",
"F+	c #CEE6C1",
"G+	c #AB834D",
"H+	c #837854",
"I+	c #C9E3BB",
"J+	c #C9E4BB",
"K+	c #C8E3BA",
"L+	c #C8E3B9",
"M+	c #B7D0AA",
"N+	c #C8D7C1",
"O+	c #D2E8C5",
"P+	c #CFE7C3",
"Q+	c #BFD2AB",
"R+	c #957242",
"S+	c #B9D1AB",
"T+	c #C7E3B8",
"U+	c #C6E2B7",
"V+	c #B5D0A7",
"W+	c #C8D7BF",
"X+	c #CDE6BF",
"Y+	c #8E9C7D",
"Z+	c #A4B18D",
"`+	c #C5E2B6",
" @	c #C4E1B4",
".@	c #B3D0A5",
"+@	c #C6D5BD",
"@@	c #CCE5BF",
"#@	c #B9D2AC",
"$@	c #C5E2B5",
"%@	c #C3E1B3",
"&@	c #B2D0A4",
"*@	c #C4D5BB",
"=@	c #CAE4BB",
"-@	c #C6E2B6",
";@	c #C2E0B2",
">@	c #C1E0B1",
",@	c #B0CEA2",
"'@	c #C3D4B9",
")@	c #C1E0B0",
"!@	c #C0DFAF",
"~@	c #B0CEA1",
"{@	c #C3D4B7",
"]@	c #C3E1B2",
"^@	c #C2E0B1",
"/@	c #C0DFB0",
"(@	c #BFDFAE",
"_@	c #BEDEAD",
":@	c #AFCE9D",
"<@	c #C1D4B5",
"[@	c #BFDFAD",
"}@	c #BEDEAC",
"|@	c #BDDEAB",
"1@	c #AFCD9D",
"2@	c #BFD2B3",
"3@	c #BDDEAC",
"4@	c #BCDDAA",
"5@	c #BBDDA9",
"6@	c #ADCB9A",
"7@	c #BED2B3",
"8@	c #C9E3B9",
"9@	c #BADCA7",
"0@	c #ACCC9B",
"    . + @ # $ % & * = - ; > , ' ) ! ~ { ] ^ / ( _               ",
"    : < [ } | 1 2 3 4 5 > , ' ) 6 ~ 7 8 ^ / 9 0 a       b c     ",
"    d $ } & * = - 4 5 , e ) ! f g ] 8 h ( 9 i j k       l m     ",
"    n | 1 2 3 - 5 > , ' ) ! ~ { ] ^ / 9 0 o p q r     s t       ",
"    u * 2 v 4 5 , w ' ! f g ] 8 h ( 9 0 j x y z A     B C       ",
"    D 3 - 5 > , ' ) ! ~ { ] ^ h ( E o p q F G H I   J K         ",
"    L 4 5 > w ' ! f ~ 7 8 M ( 9 0 j x q z N H O P   Q R         ",
"    S > , ' ) ! f { ] ^ h ( 9 i j T F G H U V W X Y Z           ",
"    ` , ' ) 6 ~ 7 8 M / 9 0 o x q z N H U  .W ..+.@.#.          ",
"    $.) ! f { ] 8 h ( 9 i j T y z N U V W %.&.*.=.-.            ",
"    ;.6 ~ { ] ^ / 9 0 o p q F N H U  .W %.>.,.'.).#.            ",
"    !.g ] 8 h ( 9 0 j x y z N U O  .%.&.~.{.].^./.              ",
"    (.] ^ _.:.<.[.}.|.[.1.2.3.4.5.6.7.8.{.].9.0.a.              ",
"    b.M ( c.d.j e.f.g.h.H i.j.k.l.>.m.n.o.p.q.r.s.              ",
"    t.( E u.v.T w.x.y.z.V A.B.C.D.{.E.F.p.G.H.I.J.              ",
"    K.0 o L.M.z N.2.i.O.W P.Q.m.R.o.S.T.U.V.W.X.Y.              ",
"    Z.j T `. +N .+++@+#+#+$+%+&+*+=+-+;+>+,+'+)+!+              ",
"    ~+q F N H U  .W %.>.,.{+F.]+^+U./+(+_+:+<+[+}+              ",
"    |+z N U O  .%.&.~.{.].1+2+^+U.3+4+5+6+7+[+8+9+              ",
"    0+H U V W %.>.,.{.].a+p.U.b+c+d+e+f+g+h+i+j+k+              ",
"    0+O  .%.&.>.*.].o.p.^+U.3+l+d+)+m+n+o+p+q+r+s+              ",
"    t+W %.&.,.{.].a+p.^+u+3+v+e+w+[+x+y+z+q+A+B+C+              ",
"    D+..>.*.].o.]+^+U.b+l+d+)+E+[+F+G+H+I+J+K+L+M+              ",
"    N+,.{.].a+p.^+u+3+v+O+)+P+F+i+Q+R+S+J+L+T+U+V+              ",
"    W+{.o.]+^+U.b+c+d+e+E+[+F+X+j+Y+Z+B+L+U+`+ @.@              ",
"    +@a+p.^+U.3+l+O+)+P+F+8+@@q+A+#@L+T+U+$@ @%@&@              ",
"    *@p.U.b+c+d+e+w+[+F+i+j+q+=@B+L+T+-@$@%@;@>@,@              ",
"    '@U.3+l+d+)+E+[+8+@@q+r+J+K+T+U+$@ @%@;@)@!@~@              ",
"    {@3+v+e+w+[+F+i+@@q+A+B+L+T+-@$@ @]@^@/@(@_@:@              ",
"    <@d+)+E+[+F+X+j+r+J+K+T+U+`+ @%@;@)@!@[@}@|@1@              ",
"    2@)+P+F+i+@@q+A+B+L+T+U+$@ @]@^@)@!@[@3@4@5@6@              ",
"    7@[+F+X+j+q+=@B+8@U+`+ @%@;@>@!@(@}@|@4@5@9@0@              "};
