/* XPM */
static char *notepadqq_alt[] = {
/* columns rows colors chars-per-pixel */
"32 32 141 2 ",
"   c #1D191A",
".  c #201C1D",
"X  c #353334",
"o  c #175F08",
"O  c #1D5E10",
"+  c #166207",
"@  c #176308",
"#  c #1E6211",
"$  c #276D19",
"%  c #286D1B",
"&  c #2F6923",
"*  c #346829",
"=  c #327425",
"-  c #357628",
";  c #3C7131",
":  c #427F36",
">  c #46783C",
",  c #424041",
"<  c #4B4A4B",
"1  c #507F47",
"2  c #6D6B6C",
"3  c #767475",
"4  c #787678",
"5  c #438037",
"6  c #4C8342",
"7  c #4F8844",
"8  c #508642",
"9  c #508845",
"0  c #538849",
"q  c #5A8B4F",
"w  c #5A8651",
"e  c #5B9052",
"r  c #648C5B",
"t  c #65935B",
"y  c #67985E",
"u  c #68995E",
"i  c #6D9266",
"p  c #6C9963",
"a  c #749C67",
"s  c #749C6C",
"d  c #789F70",
"f  c #7E9E78",
"g  c #73A06B",
"h  c #7DA676",
"j  c #7FA877",
"k  c #82A57B",
"l  c #83A87B",
"z  c #88A97D",
"x  c #838385",
"c  c #888687",
"v  c #868688",
"b  c #8C8C8B",
"n  c #869A82",
"m  c #8C948D",
"M  c #8F998E",
"N  c #8F9390",
"B  c #939491",
"V  c #969D96",
"C  c #9B9D9B",
"Z  c #87A481",
"A  c #8BA387",
"S  c #87AD81",
"D  c #89AE82",
"F  c #8DA68A",
"G  c #8FA98A",
"H  c #92AF87",
"J  c #91AA8C",
"K  c #89B082",
"L  c #92B48C",
"P  c #94B88E",
"I  c #98A296",
"U  c #97AC93",
"Y  c #9CB694",
"T  c #9BBB96",
"R  c #9DB399",
"E  c #9FBE99",
"W  c #A4BC9D",
"Q  c #9E9FA0",
"!  c #A2A3A3",
"~  c #A8A5A8",
"^  c #ADADAF",
"/  c #A4B5A2",
"(  c #A9BDA6",
")  c #ADB7AD",
"_  c #ABBBA9",
"`  c #B0B6AF",
"'  c #B3B3B5",
"]  c #B8B4B0",
"[  c #B2BAB2",
"{  c #B7B6B8",
"}  c #BABBBB",
"|  c #A3C09F",
" . c #A5C2A1",
".. c #ABC2A5",
"X. c #ACC6A9",
"o. c #AFCAAC",
"O. c #B2C4AD",
"+. c #B3CAAE",
"@. c #B5C5B3",
"#. c #B4CCB2",
"$. c #BBCBB4",
"%. c #BBC5B9",
"&. c #BDCBBB",
"*. c #B9D0B5",
"=. c #BDD1BA",
"-. c #C1CBBF",
";. c #C3D3BD",
":. c #C3C5C4",
">. c #C5CEC4",
",. c #C6C7C8",
"<. c #C7C8C9",
"1. c #CBCACC",
"2. c #D0CDC7",
"3. c #C3D4C2",
"4. c #C9D5C6",
"5. c #C7D8C5",
"6. c #C8DAC5",
"7. c #CBD3CA",
"8. c #CADACA",
"9. c #D0DECE",
"0. c #D3D4D3",
"q. c #D3DDD2",
"w. c #DCDCDC",
"e. c #D4E1D5",
"r. c #DBE5DC",
"t. c #EAE2DF",
"y. c #E1EADF",
"u. c #DFE7E0",
"i. c #DFE8E0",
"p. c #E0E7E2",
"a. c #EDE4E3",
"s. c #E3EAE4",
"d. c #E6ECE9",
"f. c #EAEEED",
"g. c #ECF1EC",
"h. c #ECEFF0",
"j. c #EEF0F1",
"k. c #F4F4F4",
"l. c #F8F8F7",
"z. c #F9F9F9",
"x. c None",
/* pixels */
"x.x.x.x.x.x.x.x.x.x.x.x.x.x.x.x.x.x.x.x.x.x.x.x.x.x.x.x.x.x.x.x.",
"x.x.x.x.x.0.0.0.0.q.0.0.0.0.0.0.0.0.0.0.0.0.0.0.0.0.:.x.x.X   x.",
"x.x.x.x.u.z.z.z.z.z.l.l.z.z.l.l.k.k.l.k.k.k.k.k.j.k.a.x.< 2 , . ",
"x.x.x.x.w.l.k.k.h.k.h.h.k.j.j.j.j.h.h.h.f.f.f.f.j.k.-., 4 c 3 x.",
"x.x.x.x.w.k.j.j.h.h.h.h.h.h.h.h.h.f.f.f.f.f.a.f.0.w.b x <.b x.x.",
"x.x.x.x.0.k.h.h.h.h.h.f.d.f.d.d.f.f.d.f.d.d.t.f.-.C v <.' x.x.x.",
"x.x.x.x.q.g.d.d.d.d.d.d.d.d.d.d.s.d.d.d.s.d.t.0.C v <.' x.x.x.x.",
"x.x.x.x.0.g.s.d.s.d.d.s.s.s.s.u.p.p.p.p.i.s.1.B x ,.' x.x.x.x.x.",
"x.x.x.x.7.d.y.s.y.s.y.r.u.u.u.u.u.r.u.r.s.7.b c ,.} ! x.x.x.x.x.",
"x.x.x.x.7.y.r.r.r.r.r.r.r.r.r.r.r.r.r.r.7.N c <.^ } q.x.x.x.x.x.",
"x.x.x.x.>.r.e.e.e.e.e.e.e.e.e.e.q.q.e.3.V v :.} ` r.4.x.x.x.x.x.",
"x.x.x.x.=.e.e.e.e.e.9.e.9.9.q.q.9.q.&.N v C { { 9.9.;.x.x.x.x.x.",
"x.x.x.x.&.9.8.8.6.8.8.8.8.8.8.3.8.&.m x C ' ] 8._ 6.-.x.x.x.x.x.",
"x.x.x.x.@.6.3.3.3.3.3.3.3.3.3.3.O.M v Q ] [ ;.;.6.3.$.x.x.x.x.x.",
"x.x.x.x.O.;.=.=.=.=.=.=.*.*.=.O.m v ! ' ) =.$.$.( *.@.x.x.x.x.x.",
"x.x.x.x._ *.#.#.#.#.#.#.#.#.X.n v ! { / #.+.O.#.( #...x.x.x.x.x.",
"x.x.x.x./ o.X.o.X.X.X.X.X.o.n b ^ { / X.X...( X. .X.W x.x.x.x.x.",
"x.x.x.x.R  . .|  . . .|  .U I l.~ U | |  .W W W H | Y x.x.x.x.x.",
"x.x.x.x.U E T T T T E T E n 1.%.A T T T T T Y T E T L x.x.x.x.x.",
"x.x.x.x.J P P P L L L L L A J K L L L L L H H L k L G x.x.x.x.x.",
"x.x.x.x.A K K K K K K K S K S K S S S S S S l S l D k x.x.x.x.x.",
"x.x.x.x.f j h j j h h h h h h h h h h h h h h h h j d x.x.x.x.x.",
"x.x.x.x.d g g g g g g g g g g g g g g g g g p g t s p x.x.x.x.x.",
"x.x.x.x.i y y y y y y y u u u u y y y y y y y y p u t x.x.x.x.x.",
"x.x.x.x.t e e e e e e e e e e e e e e e e e e e 0 e q x.x.x.x.x.",
"x.x.x.x.w 7 7 7 7 7 7 7 7 7 7 7 9 9 9 9 8 9 8 9 6 7 6 x.x.x.x.x.",
"x.x.x.x.0 ; : : 5 : : : 5 5 5 5 : : : : : : : : 5 5 ; x.x.x.x.x.",
"x.x.x.x.> - - - - - - - - - - - - - - - - - - - = - - x.x.x.x.x.",
"x.x.x.x.; $ $ % % % % $ % % % % % % % % % % % % % % $ x.x.x.x.x.",
"x.x.x.x.& + + + @ @ @ @ @ @ @ @ @ @ @ @ @ @ @ @ @ @ o x.x.x.x.x.",
"x.x.x.x.* # # # # # # # # # # # # # # # # # # # # # # x.x.x.x.x.",
"x.x.x.x.x.x.x.x.x.x.x.x.x.x.x.x.x.x.x.x.x.x.x.x.x.x.x.x.x.x.x.x."
};
