<svg version="1.1" viewBox="0 0 24 24" xmlns="http://www.w3.org/2000/svg">
    <defs>
        <style type="text/css" id="current-color-scheme">.ColorScheme-Text {
        color:#eff0f1;
      }</style>
    </defs>
    <path class="ColorScheme-Text" fill="currentColor" d="M 4,12 C 4,10.558286 4.382922,9.2107109 5.044922,8.0449219 l 0.738281,0.7382812 -0.002,0.00195 L 8.558547,11.56445 7.851516,12.271481 5.371047,9.7890594 C 5.138417,10.484685 5,11.223912 5,12 c 0,3.87797 3.122,7 7,7 1.1625,0 2.253897,-0.285828 3.216797,-0.783203 l 0.738281,0.738281 C 14.789278,19.617129 13.4417,20 12,20 7.568,20 4,16.431966 4,12 Z M 8.044922,5.0449219 C 9.210722,4.3828709 10.5583,4 12,4 c 4.432,0 8,3.568034 8,8 0,1.441714 -0.382922,2.789289 -1.044922,3.955078 l -0.683594,-0.683594 -0.002,0.002 -2.828125,-2.828126 0.707032,-0.707031 2.478515,2.478516 C 18.860921,13.519451 19,12.778264 19,12 19,8.12203 15.878,5 12,5 10.8375,5 9.746103,5.2858291 8.783203,5.7832031 Z"/>
</svg>
