<?xml version="1.0" encoding="utf-8"?>
<!DOCTYPE svg PUBLIC "-//W3C//DTD SVG 1.0//EN" "http://www.w3.org/TR/2001/REC-SVG-20010904/DTD/svg10.dtd">
<svg version="1.0" id="Layer_1" xmlns="http://www.w3.org/2000/svg" xmlns:xlink="http://www.w3.org/1999/xlink" x="0px" y="0px"
	 width="512px" height="512px" viewBox="0 0 512 512" enable-background="new 0 0 512 512" xml:space="preserve">
<polygon fill="#F7E02F" points="440.999,446 0,446 0,135.382 69,66 511.999,66 511.999,374.906 "/>
<g>
	<path d="M209.116,301.104c-27.241,0-46.231-7.334-56.971-22.002c-10.739-14.669-16.109-37.85-16.109-69.544
		c0-31.694,5.456-55.223,16.371-70.591c10.911-15.364,29.816-23.05,56.709-23.05c26.889,0,45.749,7.641,56.578,22.919
		c10.825,15.282,16.24,38.812,16.24,70.591c0,20.955-2.227,37.895-6.68,50.816c-4.452,12.925-11.746,22.788-21.871,29.599
		l22.002,35.361l-26.979,12.572l-23.312-38.242C221.775,300.581,216.45,301.104,209.116,301.104z M175.065,260.374
		c5.934,10.216,17.288,15.323,34.051,15.323s28.068-5.018,33.92-15.062c5.849-10.04,8.775-27.021,8.775-50.947
		c0-23.922-3.012-41.295-9.037-52.125c-6.024-10.825-17.247-16.24-33.659-16.24c-16.416,0-27.679,5.415-33.79,16.24
		c-6.115,10.83-9.167,28.117-9.167,51.863C166.159,233.177,169.126,250.158,175.065,260.374z"/>
	<path d="M382.776,191.616h-36.146v57.625c0,10.654,0.785,17.727,2.357,21.218c1.571,3.495,5.586,5.238,12.049,5.238l21.479-0.786
		l1.31,22.789c-11.701,2.267-20.606,3.404-26.718,3.404c-14.844,0-25.015-3.404-30.515-10.215
		c-5.501-6.811-8.251-19.646-8.251-38.505v-60.769h-16.764v-24.36h16.764v-37.98h28.289v37.98h36.146V191.616z"/>
	<path d="M152.877,382.938H142.83v15.285h-7.965v-49.157h18.012c11.147,0,16.721,5.502,16.721,16.505
		c0,5.646-1.399,9.952-4.198,12.918C162.601,381.456,158.426,382.938,152.877,382.938z M142.83,376.049h9.975
		c5.741,0,8.612-3.491,8.612-10.478c0-3.348-0.694-5.788-2.081-7.319c-1.388-1.531-3.565-2.297-6.531-2.297h-9.975V376.049z"/>
	<path d="M176.343,398.224v-35.882h7.75v4.306c4.066-2.63,8.133-4.329,12.2-5.095v7.822c-4.115,0.814-7.632,1.866-10.549,3.157
		l-1.579,0.646v25.045H176.343z"/>
	<path d="M203.936,366.218c2.463-3.109,6.566-4.665,12.307-4.665c5.741,0,9.843,1.556,12.308,4.665
		c2.463,3.11,3.696,7.774,3.696,13.993c0,6.22-1.197,10.908-3.588,14.065c-2.393,3.158-6.53,4.736-12.415,4.736
		c-5.884,0-10.023-1.578-12.415-4.736c-2.393-3.157-3.588-7.846-3.588-14.065C200.24,373.992,201.471,369.328,203.936,366.218z
		 M209.784,389.54c1.1,1.914,3.253,2.871,6.458,2.871c3.205,0,5.357-0.957,6.459-2.871c1.1-1.913,1.65-5.047,1.65-9.4
		s-0.586-7.438-1.758-9.258c-1.173-1.817-3.29-2.727-6.351-2.727c-3.062,0-5.179,0.909-6.351,2.727
		c-1.173,1.819-1.758,4.904-1.758,9.258S208.683,387.627,209.784,389.54z"/>
	<path d="M247.818,398.224h-7.822v-35.882h7.75v2.225c3.396-2.009,6.506-3.014,9.329-3.014c4.162,0,7.199,1.173,9.113,3.517
		c4.354-2.344,8.684-3.517,12.99-3.517c4.305,0,7.344,1.328,9.113,3.982c1.77,2.655,2.656,7.141,2.656,13.456v19.232h-7.752v-19.018
		c0-3.875-0.395-6.625-1.184-8.252c-0.789-1.626-2.428-2.44-4.916-2.44c-2.152,0-4.473,0.479-6.961,1.436l-1.219,0.502
		c0.381,0.958,0.572,4.019,0.572,9.186v18.587h-7.75V379.78c0-4.257-0.383-7.199-1.148-8.826c-0.765-1.626-2.438-2.44-5.022-2.44
		c-2.393,0-4.618,0.479-6.674,1.436l-1.076,0.431V398.224z"/>
	<path d="M300.133,356.242v-8.253h7.822v8.253H300.133z M300.133,398.224v-35.882h7.822v35.882H300.133z"/>
	<path d="M342.33,369.733c-5.646-0.765-9.735-1.147-12.271-1.147s-4.294,0.299-5.274,0.896c-0.98,0.599-1.471,1.543-1.471,2.835
		s0.538,2.201,1.614,2.727c1.077,0.527,3.612,1.138,7.607,1.83c3.994,0.694,6.828,1.783,8.504,3.266
		c1.674,1.483,2.512,4.115,2.512,7.894c0,3.78-1.209,6.556-3.624,8.324c-2.417,1.771-5.945,2.655-10.585,2.655
		c-2.919,0-6.603-0.406-11.052-1.22l-2.225-0.358l0.287-6.53c5.741,0.766,9.878,1.147,12.415,1.147c2.535,0,4.342-0.311,5.418-0.933
		c1.076-0.621,1.614-1.65,1.614-3.086s-0.515-2.428-1.543-2.979c-1.029-0.549-3.492-1.147-7.392-1.794
		c-3.899-0.646-6.758-1.661-8.575-3.05c-1.819-1.387-2.728-3.922-2.728-7.606c0-3.684,1.256-6.435,3.768-8.253
		c2.512-1.817,5.729-2.727,9.652-2.727c3.062,0,6.817,0.383,11.267,1.147l2.225,0.431L342.33,369.733z"/>
	<path d="M376.632,391.765l2.009-0.215l0.144,5.813c-5.454,1.101-10.286,1.65-14.496,1.65c-5.311,0-9.126-1.458-11.446-4.377
		c-2.32-2.918-3.48-7.582-3.48-13.994c0-12.726,5.19-19.089,15.573-19.089c10.047,0,15.07,5.479,15.07,16.434l-0.503,5.598h-22.246
		c0.047,2.967,0.692,5.144,1.938,6.53c1.243,1.389,3.563,2.081,6.961,2.081C369.551,392.195,373.044,392.052,376.632,391.765z
		 M372.327,377.556c0-3.54-0.563-6.016-1.687-7.427c-1.125-1.411-3.026-2.117-5.705-2.117c-2.681,0-4.629,0.742-5.849,2.225
		c-1.221,1.483-1.855,3.923-1.902,7.319H372.327z"/>
</g>
</svg>
