<?xml version="1.0" encoding="UTF-8" standalone="no"?>
<svg
   xmlns:dc="http://purl.org/dc/elements/1.1/"
   xmlns:cc="http://creativecommons.org/ns#"
   xmlns:rdf="http://www.w3.org/1999/02/22-rdf-syntax-ns#"
   xmlns:svg="http://www.w3.org/2000/svg"
   xmlns="http://www.w3.org/2000/svg"
   viewBox="0 0 32 32"
   version="1.1"
   id="svg6">
  <metadata
     id="metadata10">
    <rdf:RDF>
      <cc:Work
         rdf:about="">
        <dc:format>image/svg+xml</dc:format>
        <dc:type
           rdf:resource="http://purl.org/dc/dcmitype/StillImage" />
        <dc:title></dc:title>
      </cc:Work>
    </rdf:RDF>
  </metadata>
  <defs
     id="defs3051">
    <style
       type="text/css"
       id="current-color-scheme">
            .ColorScheme-NegativeText {
                color:#da4453;
            }
        </style>
  </defs>
  <g
     id="g893"
     transform="translate(-3,-2)">
    <path
       id="path4"
       transform="translate(3,2)"
       d="M 3 2 L 3 26 L 9 26 L 9 30 L 20 30 L 20 29 L 10 29 L 10 7 L 21 7 L 21 14 L 23 14 L 28 14 L 28 21 L 29 21 L 29 13 L 23 7 L 23 2 L 3 2 z M 4 3 L 22 3 L 22 6 L 21 6 L 9 6 L 9 25 L 4 25 L 4 3 z M 21.707031 22 L 21 22.707031 L 24.292969 26 L 21 29.292969 C 21.013 29.317969 21.707031 30 21.707031 30 L 25 26.707031 L 28.292969 30 L 29 29.292969 L 25.707031 26 L 29 22.707031 L 28.292969 22 L 25 25.292969 L 21.707031 22 z "
       style="color:#da4453;fill:currentColor;fill-opacity:1;stroke:none" />
  </g>
</svg>
