/* XPM */
static char * notepadqq_16x16_xpm[] = {
"16 16 144 2",
"  	c None",
". 	c #F6F6F6",
"+ 	c #FBFDFB",
"@ 	c #FAFCF8",
"# 	c #F7FBF5",
"$ 	c #F5FAF3",
"% 	c #F3F9F0",
"& 	c #F1F8ED",
"* 	c #EFF7EB",
"= 	c #EDF6E8",
"- 	c #EBF5E5",
"; 	c #E9F4E3",
"> 	c #F4F6F3",
", 	c #F8FBF7",
"' 	c #F7FBF4",
") 	c #F4F9F2",
"! 	c #F2F8EF",
"~ 	c #F0F7EC",
"{ 	c #EEF6EA",
"] 	c #ECF5E7",
"^ 	c #EAF4E4",
"/ 	c #E8F3E1",
"( 	c #E6F2DF",
"_ 	c #B3B3B3",
": 	c #F2F4EF",
"< 	c #F1F8EE",
"[ 	c #E7F3E0",
"} 	c #E5F2DD",
"| 	c #E3F1DB",
"1 	c #303030",
"2 	c #EEF3EB",
"3 	c #E8F3E2",
"4 	c #E4F1DC",
"5 	c #E2F0DA",
"6 	c #DFEFD7",
"7 	c #81897E",
"8 	c #020202",
"9 	c #EBF2E7",
"0 	c #EDF6E9",
"a 	c #EBF5E6",
"b 	c #E7F3E1",
"c 	c #E5F2DE",
"d 	c #E1F0D9",
"e 	c #DFEFD6",
"f 	c #DCEDD3",
"g 	c #3C3D3B",
"h 	c #E9F0E3",
"i 	c #ECF5E8",
"j 	c #EAF4E5",
"k 	c #E6F2E0",
"l 	c #E4F1DD",
"m 	c #E0EFD7",
"n 	c #DEEED5",
"o 	c #DCEDD2",
"p 	c #B6C4AE",
"q 	c #232622",
"r 	c #E6EEE1",
"s 	c #E9F4E4",
"t 	c #E3F1DC",
"u 	c #DDEED3",
"v 	c #DBEDD1",
"w 	c #D8EBCE",
"x 	c #61665D",
"y 	c #E2EDDB",
"z 	c #BDD5B5",
"A 	c #C4DBBC",
"B 	c #CFE2C6",
"C 	c #BED8B5",
"D 	c #BFD9B5",
"E 	c #C2DBB8",
"F 	c #B9D5AF",
"G 	c #BAD6AE",
"H 	c #A3BA9B",
"I 	c #50574D",
"J 	c #DEEBD9",
"K 	c #C1D9B9",
"L 	c #DBEBD3",
"M 	c #C3DBBA",
"N 	c #BBD7B2",
"O 	c #BCD8B2",
"P 	c #C0DAB5",
"Q 	c #B6D4AB",
"R 	c #626B5F",
"S 	c #A0B297",
"T 	c #DBEAD5",
"U 	c #E0EFD8",
"V 	c #DAECD0",
"W 	c #D0E6C6",
"X 	c #BDD9B2",
"Y 	c #D4E9C8",
"Z 	c #B1C4A7",
"` 	c #475044",
" .	c #CDE6C0",
"..	c #D9E9D1",
"+.	c #DDEED4",
"@.	c #DBEDD2",
"#.	c #D9ECCF",
"$.	c #D7EBCC",
"%.	c #D5EAC9",
"&.	c #D3E9C7",
"*.	c #D1E8C4",
"=.	c #7F8775",
"-.	c #93A58A",
";.	c #CAE4BC",
">.	c #D6E6CD",
",.	c #D6EACB",
"'.	c #D2E8C5",
").	c #D0E7C3",
"!.	c #CBE0BB",
"~.	c #93865C",
"{.	c #C8E3BA",
"].	c #C7E3B8",
"^.	c #D2E6C9",
"/.	c #D5EACA",
"(.	c #CFE7C2",
"_.	c #CDE6BF",
":.	c #B7CEA8",
"<.	c #BBD3AD",
"[.	c #C6E2B7",
"}.	c #C4E1B4",
"|.	c #CFE3C5",
"1.	c #D4E9C9",
"2.	c #D2E8C6",
"3.	c #CEE6C1",
"4.	c #CCE5BE",
"5.	c #C9E4BB",
"6.	c #C8E3B9",
"7.	c #C5E2B6",
"8.	c #C3E1B3",
"9.	c #C1E0B1",
"0.	c #CDE2C2",
"a.	c #D1E8C5",
"b.	c #CBE5BD",
"c.	c #C9E4BA",
"d.	c #C5E2B5",
"e.	c #C2E0B2",
"f.	c #C0DFAF",
"g.	c #BEDEAC",
"h.	c #C8DFBE",
"i.	c #C6E2B6",
"j.	c #C2E0B1",
"k.	c #BFDFAE",
"l.	c #BDDEAB",
"m.	c #BBDDA9",
"  . + @ # $ % & * = - ;         ",
"  > , ' ) ! ~ { ] ^ / (     _   ",
"  : $ % < * = - ; [ } |   1     ",
"  2 ! ~ { ] ^ 3 ( 4 5 6 7 8     ",
"  9 * 0 a ; b c | d e f g       ",
"  h i j 3 k l 5 m n o p q       ",
"  r s b c t d e u v w x         ",
"  y z A B C D E F G H I         ",
"  J K L M N O P Q Q R S         ",
"  T U n f V W X Y Z `  .        ",
"  ..+.@.#.$.%.&.*.=.-.;.        ",
"  >.V w ,.Y '.).!.~.{.].        ",
"  ^.$./.&.*.(._.:.<.[.}.        ",
"  |.1.2.).3.4.5.6.7.8.9.        ",
"  0.a.(. .b.c.[.d.e.f.g.        ",
"  h.3.4.;.6.i.8.j.k.l.m.        "};
