<?xml version="1.0" encoding="UTF-8" standalone="no"?>
<svg
   xmlns:dc="http://purl.org/dc/elements/1.1/"
   xmlns:cc="http://creativecommons.org/ns#"
   xmlns:rdf="http://www.w3.org/1999/02/22-rdf-syntax-ns#"
   xmlns:svg="http://www.w3.org/2000/svg"
   xmlns="http://www.w3.org/2000/svg"
   xmlns:xlink="http://www.w3.org/1999/xlink"
   xmlns:sodipodi="http://sodipodi.sourceforge.net/DTD/sodipodi-0.dtd"
   xmlns:inkscape="http://www.inkscape.org/namespaces/inkscape"
   version="1.1"
   id="svg2"
   viewBox="0 0 192 191.99999"
   height="192"
   width="192"
   inkscape:version="0.91 r13725"
   sodipodi:docname="logo_2015_1.svg">
  <sodipodi:namedview
     pagecolor="#ffffff"
     bordercolor="#666666"
     borderopacity="1"
     objecttolerance="10"
     gridtolerance="10"
     guidetolerance="10"
     inkscape:pageopacity="0"
     inkscape:pageshadow="2"
     inkscape:window-width="1301"
     inkscape:window-height="744"
     id="namedview23"
     showgrid="false"
     inkscape:zoom="1.7383042"
     inkscape:cx="97.906288"
     inkscape:cy="96"
     inkscape:window-x="65"
     inkscape:window-y="24"
     inkscape:window-maximized="1"
     inkscape:current-layer="svg2" />
  <defs
     id="defs4">
    <linearGradient
       id="linearGradient4296">
      <stop
         id="stop4298"
         offset="0"
         style="stop-color:#646464;stop-opacity:1" />
      <stop
         id="stop4300"
         offset="1"
         style="stop-color:#646464;stop-opacity:0" />
    </linearGradient>
    <linearGradient
       id="Ombra_1">
      <stop
         style="stop-color:#ffffff;stop-opacity:0.15"
         offset="0"
         id="stop4284" />
      <stop
         style="stop-color:#ffffff;stop-opacity:0"
         offset="1"
         id="stop4286" />
    </linearGradient>
    <radialGradient
       gradientUnits="userSpaceOnUse"
       gradientTransform="matrix(0.01609262,1.6780488,-1.9140901,0.01835633,1708.0875,-62.759427)"
       r="66.46804"
       fy="874.18365"
       fx="34.212387"
       cy="874.18365"
       cx="34.212387"
       id="radialGradient4155"
       xlink:href="#Ombra_1" />
    <linearGradient
       gradientTransform="translate(0,-863.33095)"
       gradientUnits="userSpaceOnUse"
       y2="1032.3293"
       x2="121.98848"
       y1="990.82941"
       x1="62.5"
       id="linearGradient4280"
       xlink:href="#linearGradient4296" />
  </defs>
  <metadata
     id="metadata7">
    <rdf:RDF>
      <cc:Work
         rdf:about="">
        <dc:format>image/svg+xml</dc:format>
        <dc:type
           rdf:resource="http://purl.org/dc/dcmitype/StillImage" />
        <dc:title></dc:title>
      </cc:Work>
    </rdf:RDF>
  </metadata>
  <path
     inkscape:connector-curvature="0"
     style="fill:#646464;fill-opacity:1;stroke:#000000;stroke-width:0;stroke-linejoin:round;stroke-miterlimit:4;stroke-dasharray:none;stroke-opacity:1"
     d="m 32.00003,148.7494 0,31.6881 c 0,2.5289 2.04815,4.5645 4.59289,4.5645 l 5.4537,0 33.33121,0 64.56799,0 c 11.11001,0 20.05415,-9.3574 20.05415,-20.9799 l 0,-15.2727 -127.99994,0 z"
     id="rect4136-4-4" />
  <path
     inkscape:connector-curvature="0"
     style="fill:#919191;fill-opacity:1;stroke:#000000;stroke-width:0;stroke-linejoin:round;stroke-miterlimit:4;stroke-dasharray:none;stroke-opacity:1"
     d="m 36.659265,7.00198 c -2.5727,0 -4.64364,2.06608 -4.64364,4.63271 l 0,36.59821 c 0,0.05 0.009,0.097 0.0137,0.146 l 127.955045,0 0,-20.31655 c -3e-5,-11.6672 -8.94417,-21.06037 -20.05418,-21.06037 l -64.589455,0 -33.30974,0 -5.37172,0 z"
     id="rect4136-4-3-3" />
  <path
     inkscape:connector-curvature="0"
     style="fill:#757575;fill-opacity:1;stroke:#000000;stroke-width:0;stroke-linejoin:round;stroke-miterlimit:4;stroke-dasharray:none;stroke-opacity:1"
     d="m 36.67488,8.00459 c -2.57269,0 -4.64365,2.07213 -4.64365,4.6463 l -0.0312,166.75181 c 0,2.5461 2.04816,4.5955 4.5929,4.5955 l 5.4537,0 33.33121,0 64.56798,0 c 11.11001,0 20.05415,-9.4208 20.05415,-21.1223 l 0,-133.74909 c 0,-11.70146 -8.94414,-21.12222 -20.05415,-21.12222 l -64.58945,0 -33.30974,0 -5.37172,0 z"
     id="rect4136-40" />
  <rect
     style="fill:#4caf50;fill-opacity:1;stroke:#000000;stroke-width:0;stroke-linecap:butt;stroke-linejoin:round;stroke-miterlimit:4;stroke-dasharray:none;stroke-opacity:1"
     id="rect4167-1"
     width="127.99998"
     height="46"
     x="32.000011"
     y="72.999985"
     ry="0" />
  <text
     sodipodi:linespacing="125%"
     xml:space="preserve"
     style="font-style:normal;font-weight:normal;font-size:40px;line-height:125%;font-family:Sans;letter-spacing:0px;word-spacing:0px;fill:#eeeeee;fill-opacity:1;stroke:none;stroke-width:1px;stroke-linecap:butt;stroke-linejoin:miter;stroke-opacity:1;"
     x="52.95303"
     y="108.03899"
     id="text4303-0"><tspan
       id="tspan4305-8"
       x="52.95303"
       y="108.03899"
       style="fill:#eeeeee;fill-opacity:1;">nqq</tspan></text>
  <path
     inkscape:connector-curvature="0"
     style="fill:url(#linearGradient4280);fill-opacity:1;stroke:#000000;stroke-width:0;stroke-linejoin:round;stroke-miterlimit:4;stroke-dasharray:none;stroke-opacity:1"
     d="m 32.000195,119.00124 0,0.012 65.58789,64.98366 42.345705,0 c 4.14882,0 7.99573,-1.3147 11.1875,-3.5703 l 5.70703,-6.1719 c 1.992,-3.2827 3.16016,-7.1798 3.16016,-11.3808 l 0,-43.86456 -0.008,-0.01 -127.980475,0 z"
     id="rect4136-40-9" />
  <rect
     style="fill:#424242;fill-opacity:1;stroke:none;stroke-width:0;stroke-linecap:butt;stroke-linejoin:round;stroke-miterlimit:4;stroke-dasharray:none;stroke-opacity:1"
     id="rect4307-5"
     width="7"
     height="178.00073"
     x="131.53897"
     y="6.9996166" />
  <rect
     style="fill:url(#radialGradient4155);fill-opacity:1;stroke:none;stroke-width:0;stroke-linecap:butt;stroke-linejoin:round;stroke-miterlimit:4;stroke-dasharray:none;stroke-opacity:1"
     id="rect5460"
     width="132.93608"
     height="182.43355"
     x="29.403713"
     y="4.6069922" />
</svg>
