<?xml version="1.0" encoding="UTF-8" standalone="no"?>
<!-- Created with Inkscape (http://www.inkscape.org/) -->

<svg
   xmlns:dc="http://purl.org/dc/elements/1.1/"
   xmlns:cc="http://creativecommons.org/ns#"
   xmlns:rdf="http://www.w3.org/1999/02/22-rdf-syntax-ns#"
   xmlns:svg="http://www.w3.org/2000/svg"
   xmlns="http://www.w3.org/2000/svg"
   xmlns:xlink="http://www.w3.org/1999/xlink"
   xmlns:sodipodi="http://sodipodi.sourceforge.net/DTD/sodipodi-0.dtd"
   xmlns:inkscape="http://www.inkscape.org/namespaces/inkscape"
   width="720"
   height="720"
   id="svg5107"
   version="1.1"
   inkscape:version="0.91 r13725"
   sodipodi:docname="notepadqq_black.svg"
   inkscape:export-filename="/home/daniele/Scrivania/nqq6.png"
   inkscape:export-xdpi="90"
   inkscape:export-ydpi="90">
  <defs
     id="defs5109">
    <inkscape:path-effect
       effect="gears"
       id="path-effect4247"
       is_visible="true"
       teeth="3"
       phi="4.5" />
    <linearGradient
       id="linearGradient2873">
      <stop
         id="stop2875"
         offset="0"
         style="stop-color:#939393;stop-opacity:1;" />
      <stop
         id="stop2877"
         offset="1"
         style="stop-color:#424242;stop-opacity:1;" />
    </linearGradient>
    <linearGradient
       id="linearGradient5046">
      <stop
         id="stop5048"
         offset="0"
         style="stop-color:#ffffff;stop-opacity:1;" />
      <stop
         id="stop5050"
         offset="1"
         style="stop-color:#b9dca6;stop-opacity:1;" />
    </linearGradient>
    <linearGradient
       id="linearGradient5004">
      <stop
         style="stop-color:#de9649;stop-opacity:1;"
         offset="0"
         id="stop5006" />
      <stop
         style="stop-color:#3d250b;stop-opacity:1;"
         offset="1"
         id="stop5008" />
    </linearGradient>
    <linearGradient
       id="linearGradient2974">
      <stop
         id="stop2976"
         offset="0"
         style="stop-color:#c1c1c1;stop-opacity:1;" />
      <stop
         style="stop-color:#f3f3f3;stop-opacity:1;"
         offset="0.5"
         id="stop4984" />
      <stop
         id="stop2978"
         offset="1"
         style="stop-color:#cacaca;stop-opacity:1;" />
    </linearGradient>
    <linearGradient
       id="linearGradient2994">
      <stop
         id="stop2996"
         offset="0"
         style="stop-color:#000000;stop-opacity:1;" />
      <stop
         id="stop2998"
         offset="1"
         style="stop-color:#c9c9c9;stop-opacity:1;" />
    </linearGradient>
    <linearGradient
       inkscape:collect="always"
       xlink:href="#linearGradient2873"
       id="linearGradient3188"
       gradientUnits="userSpaceOnUse"
       gradientTransform="matrix(0.36375344,0,0,0.36375344,128.81743,433.09205)"
       x1="301.65262"
       y1="77.063858"
       x2="302.71622"
       y2="139.44009" />
    <linearGradient
       inkscape:collect="always"
       xlink:href="#linearGradient5046"
       id="linearGradient3858"
       gradientUnits="userSpaceOnUse"
       gradientTransform="matrix(1.0504018,0,0,0.99625498,111.44393,35.819819)"
       x1="27.939529"
       y1="33.832268"
       x2="511.31018"
       y2="729.57697" />
    <linearGradient
       id="linearGradient2994-0">
      <stop
         id="stop2996-3"
         offset="0"
         style="stop-color:#000000;stop-opacity:1;" />
      <stop
         id="stop2998-2"
         offset="1"
         style="stop-color:#c9c9c9;stop-opacity:1;" />
    </linearGradient>
    <linearGradient
       id="linearGradient2974-7">
      <stop
         id="stop2976-6"
         offset="0"
         style="stop-color:#c1c1c1;stop-opacity:1;" />
      <stop
         style="stop-color:#f3f3f3;stop-opacity:1;"
         offset="0.5"
         id="stop4984-3" />
      <stop
         id="stop2978-3"
         offset="1"
         style="stop-color:#cacaca;stop-opacity:1;" />
    </linearGradient>
    <linearGradient
       id="linearGradient5004-5">
      <stop
         style="stop-color:#de9649;stop-opacity:1;"
         offset="0"
         id="stop5006-7" />
      <stop
         style="stop-color:#3d250b;stop-opacity:1;"
         offset="1"
         id="stop5008-3" />
    </linearGradient>
  </defs>
  <sodipodi:namedview
     id="base"
     pagecolor="#ffffff"
     bordercolor="#666666"
     borderopacity="1.0"
     inkscape:pageopacity="0.0"
     inkscape:pageshadow="2"
     inkscape:zoom="1.4142136"
     inkscape:cx="690.60935"
     inkscape:cy="443.4536"
     inkscape:document-units="px"
     inkscape:current-layer="layer1"
     showgrid="false"
     inkscape:window-width="1301"
     inkscape:window-height="744"
     inkscape:window-x="65"
     inkscape:window-y="24"
     inkscape:window-maximized="1"
     fit-margin-top="0.1"
     fit-margin-left="0.1"
     fit-margin-right="0"
     fit-margin-bottom="0"
     units="px"
     showguides="true"
     inkscape:guide-bbox="true" />
  <metadata
     id="metadata5112">
    <rdf:RDF>
      <cc:Work
         rdf:about="">
        <dc:format>image/svg+xml</dc:format>
        <dc:type
           rdf:resource="http://purl.org/dc/dcmitype/StillImage" />
        <dc:title></dc:title>
      </cc:Work>
    </rdf:RDF>
  </metadata>
  <g
     inkscape:label="Livello 1"
     inkscape:groupmode="layer"
     id="layer1"
     transform="translate(-35.850169,-55.040829)">
    <path
       style="fill:none;fill-opacity:1;fill-rule:nonzero;stroke:#000000;stroke-width:2.98900008;stroke-miterlimit:4;stroke-dasharray:none;stroke-opacity:1"
       d="M 98.318359 1.4902344 L 98.318359 718.50977 L 621.68164 718.50977 L 621.68164 314.06836 L 528.58203 563.40234 L 482.79688 546.30664 L 615.19336 191.73242 C 552.44206 128.29831 489.65369 64.899916 426.87695 1.4902344 L 98.318359 1.4902344 z "
       transform="translate(35.850169,55.040829)"
       id="rect5275" />
    <path
       style="fill:none;stroke:#000000;stroke-width:2.98900008;stroke-linecap:butt;stroke-linejoin:miter;stroke-miterlimit:4;stroke-dasharray:none;stroke-opacity:1"
       d="M 428.10352 3.6191406 L 428.10352 198.16797 L 612.78906 198.16797 L 614.65625 193.16992 L 428.10352 3.6191406 z "
       transform="translate(35.850169,55.040829)"
       id="path3041" />
    <path
       inkscape:connector-curvature="0"
       id="path4216"
       style="font-style:normal;font-weight:normal;font-size:189.29548645px;line-height:125%;font-family:Sans;letter-spacing:0px;word-spacing:0px;fill:#000000;fill-opacity:1;stroke:none"
       d="m 319.50346,423.45129 0,62.4823 -17.00701,0 0,-61.92772 q 0,-14.69628 -5.73063,-21.9982 -5.73062,-7.30193 -17.19187,-7.30193 -13.77199,0 -21.72092,8.7808 -7.94893,8.78079 -7.94893,23.93922 l 0,58.50783 -17.09945,0 0,-103.52097 17.09945,0 0,16.08273 q 6.10034,-9.33538 14.32656,-13.95685 8.31865,-4.62147 19.13289,-4.62147 17.83889,0 26.9894,11.09153 9.15051,10.99911 9.15051,32.44273 z" />
    <path
       inkscape:connector-curvature="0"
       id="path4218"
       style="font-style:normal;font-weight:normal;font-size:189.29548645px;line-height:125%;font-family:Sans;letter-spacing:0px;word-spacing:0px;fill:#000000;fill-opacity:1;stroke:none"
       d="m 363.77716,434.26554 q 0,18.76317 7.67164,29.48499 7.76408,10.62938 21.25877,10.62938 13.4947,0 21.25878,-10.62938 7.76407,-10.72182 7.76407,-29.48499 0,-18.76318 -7.76407,-29.39256 -7.76408,-10.72182 -21.25878,-10.72182 -13.49469,0 -21.25877,10.72182 -7.67164,10.62938 -7.67164,29.39256 z m 57.95326,36.13991 q -5.36091,9.24294 -13.58713,13.77198 -8.13379,4.43662 -19.59504,4.43662 -18.76318,0 -30.59414,-14.97357 -11.73854,-14.97357 -11.73854,-39.37494 0,-24.40137 11.73854,-39.37494 11.83096,-14.97357 30.59414,-14.97357 11.46125,0 19.59504,4.52904 8.22622,4.43662 13.58713,13.67956 l 0,-15.71301 17.00701,0 0,142.89591 -17.00701,0 0,-54.90308 z" />
    <path
       style="font-style:normal;font-weight:normal;font-size:189.29548645px;line-height:125%;font-family:Sans;letter-spacing:0px;word-spacing:0px;fill:#000000;fill-opacity:1;stroke:none"
       d="M 472.85547 324.87695 C 460.34669 324.87695 450.14903 329.86723 442.26172 339.84961 C 434.43603 349.83199 430.52344 362.95703 430.52344 379.22461 C 430.52344 395.49219 434.43603 408.61723 442.26172 418.59961 C 450.14903 428.58199 460.34669 433.57227 472.85547 433.57227 C 480.4963 433.57227 487.02864 432.09447 492.45117 429.13672 C 497.93531 426.11736 502.46512 421.52719 506.03906 415.36523 L 506.03906 470.26758 L 511.18945 470.26758 L 523.04492 438.51758 L 523.04492 327.37109 L 506.03906 327.37109 L 506.03906 343.08398 C 502.46512 336.92202 497.93531 332.36204 492.45117 329.4043 C 487.02864 326.38494 480.4963 324.87695 472.85547 324.87695 z M 477.01562 339.10938 C 486.01209 339.10937 493.09934 342.68415 498.27539 349.83203 C 503.45144 356.91828 506.03906 366.71582 506.03906 379.22461 C 506.03906 391.73339 503.45144 401.5611 498.27539 408.70898 C 493.09934 415.79524 486.01209 419.33984 477.01562 419.33984 C 468.01916 419.33984 460.93386 415.79524 455.75781 408.70898 C 450.64339 401.5611 448.08594 391.73339 448.08594 379.22461 C 448.08594 366.71582 450.64339 356.91828 455.75781 349.83203 C 460.93386 342.68415 468.01916 339.10938 477.01562 339.10938 z "
       transform="translate(35.850169,55.040829)"
       id="path4220" />
    <path
       inkscape:connector-curvature="0"
       id="rect3965"
       d="m 682.34006,163.04864 45.74492,17.08097 -17.68549,47.3639 -45.74493,-17.08098 z"
       style="fill:none;fill-opacity:1;stroke:#000000;stroke-width:3.99999976;stroke-linejoin:miter;stroke-miterlimit:4;stroke-dasharray:none;stroke-opacity:1" />
    <path
       style="fill:none;fill-opacity:1;stroke:#000000;stroke-width:3.99999976;stroke-linecap:butt;stroke-linejoin:miter;stroke-miterlimit:4;stroke-dasharray:none;stroke-opacity:1"
       d="m 512.85029,663.473 -2.53324,29.17889 18.33995,-23.27672 z"
       id="path3993"
       inkscape:connector-curvature="0" />
    <path
       style="fill:none;fill-opacity:1;stroke:#000000;stroke-width:3.99999976;stroke-linecap:butt;stroke-linejoin:round;stroke-miterlimit:4;stroke-dasharray:none;stroke-opacity:1"
       d="m 518.48208,601.48445 -5.86111,62.33714 c 0,0 7.31104,5.55304 15.87534,5.92778 l 35.97948,-51.16684 c 0,0 -21.5587,-11.99163 -45.99372,-17.09805 z"
       id="path3983"
       inkscape:connector-curvature="0" />
    <path
       style="fill:none;fill-opacity:1;stroke:#000000;stroke-width:3.99999976;stroke-linejoin:miter;stroke-miterlimit:4;stroke-dasharray:none;stroke-opacity:1"
       d="m 689.47978,143.83499 23.9593,5.30128 21.8261,11.79478 -170.83338,457.51252 -45.78538,-17.09608 z"
       id="rect3872"
       inkscape:connector-curvature="0"
       sodipodi:nodetypes="cccccc" />
  </g>
</svg>
