<?xml version="1.0" encoding="UTF-8" standalone="no"?>
<!-- Created with Inkscape (http://www.inkscape.org/) -->

<svg
   xmlns:dc="http://purl.org/dc/elements/1.1/"
   xmlns:cc="http://creativecommons.org/ns#"
   xmlns:rdf="http://www.w3.org/1999/02/22-rdf-syntax-ns#"
   xmlns:svg="http://www.w3.org/2000/svg"
   xmlns="http://www.w3.org/2000/svg"
   xmlns:xlink="http://www.w3.org/1999/xlink"
   xmlns:sodipodi="http://sodipodi.sourceforge.net/DTD/sodipodi-0.dtd"
   xmlns:inkscape="http://www.inkscape.org/namespaces/inkscape"
   width="192"
   height="192"
   viewBox="0 0 192 191.99999"
   id="svg2"
   version="1.1"
   inkscape:version="0.91 r13725"
   sodipodi:docname="logo_2015_14.svg">
  <defs
     id="defs4">
    <linearGradient
       inkscape:collect="always"
       id="linearGradient4296">
      <stop
         style="stop-color:#646464;stop-opacity:1"
         offset="0"
         id="stop4298" />
      <stop
         style="stop-color:#646464;stop-opacity:0"
         offset="1"
         id="stop4300" />
    </linearGradient>
    <linearGradient
       id="Ombra_1"
       inkscape:collect="always">
      <stop
         id="stop4284"
         offset="0"
         style="stop-color:#ffffff;stop-opacity:0.23529412" />
      <stop
         id="stop4286"
         offset="1"
         style="stop-color:#ffffff;stop-opacity:0" />
    </linearGradient>
    <linearGradient
       inkscape:collect="always"
       xlink:href="#linearGradient4296"
       id="linearGradient4280"
       x1="59.125"
       y1="999.32941"
       x2="98.36348"
       y2="1036.5793"
       gradientUnits="userSpaceOnUse"
       gradientTransform="translate(-4.0000056,-2.96875)" />
    <radialGradient
       inkscape:collect="always"
       xlink:href="#Ombra_1"
       id="radialGradient4193"
       cx="28.726013"
       cy="-166.19617"
       fx="28.726013"
       fy="-166.19617"
       r="65.000008"
       gradientTransform="matrix(7.6221826e-8,1.3380634,-1.7119054,9.7517468e-8,-257.12415,829.27344)"
       gradientUnits="userSpaceOnUse" />
    <filter
       style="color-interpolation-filters:sRGB;"
       inkscape:label="Drop Shadow"
       id="filter4653"
       height="1.0600000000000001"
       y="-0.029999999999999999"
       width="1.1000000000000001"
       x="-0.050000000000000003">
      <feFlood
         flood-opacity="0.45000000000000001"
         flood-color="rgb(0,0,0)"
         result="flood"
         id="feFlood4655" />
      <feComposite
         in="flood"
         in2="SourceGraphic"
         operator="in"
         result="composite1"
         id="feComposite4657" />
      <feGaussianBlur
         in="composite1"
         stdDeviation="1 1.5"
         result="blur"
         id="feGaussianBlur4659"
         dy="3" />
      <feOffset
         dx="0"
         dy="3"
         result="offset"
         id="feOffset4661" />
      <feComposite
         in="SourceGraphic"
         in2="offset"
         operator="over"
         result="composite2"
         id="feComposite4663" />
    </filter>
  </defs>
  <sodipodi:namedview
     id="base"
     pagecolor="#ffffff"
     bordercolor="#666666"
     borderopacity="1.0"
     inkscape:pageopacity="0.0"
     inkscape:pageshadow="2"
     inkscape:zoom="0.35355339"
     inkscape:cx="-150.28244"
     inkscape:cy="-79.59021"
     inkscape:document-units="px"
     inkscape:current-layer="g5316"
     showgrid="false"
     inkscape:showpageshadow="true"
     units="px"
     showguides="true"
     inkscape:guide-bbox="true"
     inkscape:window-width="1301"
     inkscape:window-height="744"
     inkscape:window-x="65"
     inkscape:window-y="24"
     inkscape:window-maximized="1"
     inkscape:snap-to-guides="false">
    <sodipodi:guide
       position="38.031249,183.99999"
       orientation="0,1"
       id="guide4171"
       inkscape:label=""
       inkscape:color="rgb(0,0,255)"
       inkscape:locked="false" />
    <sodipodi:guide
       position="160,103.62499"
       orientation="1,0"
       id="guide4173"
       inkscape:locked="false" />
    <sodipodi:guide
       position="31.999999,96.874993"
       orientation="1,0"
       id="guide4154"
       inkscape:locked="false" />
    <sodipodi:guide
       position="97.116695,7.9999996"
       orientation="0,1"
       id="guide4156"
       inkscape:label=""
       inkscape:color="rgb(0,0,255)"
       inkscape:locked="false" />
    <sodipodi:guide
       position="75.125,12.124999"
       orientation="0.70710678,0.70710678"
       id="guide4158"
       inkscape:label=""
       inkscape:color="rgb(0,0,255)"
       inkscape:locked="false" />
  </sodipodi:namedview>
  <metadata
     id="metadata7">
    <rdf:RDF>
      <cc:Work
         rdf:about="">
        <dc:format>image/svg+xml</dc:format>
        <dc:type
           rdf:resource="http://purl.org/dc/dcmitype/StillImage" />
        <dc:title></dc:title>
      </cc:Work>
    </rdf:RDF>
  </metadata>
  <g
     inkscape:label="Notepad"
     inkscape:groupmode="layer"
     id="layer1"
     transform="translate(0,-860.3622)"
     style="display:inline">
    <path
       style="fill:#646464;fill-opacity:1;stroke:#000000;stroke-width:0;stroke-linejoin:round;stroke-miterlimit:4;stroke-dasharray:none;stroke-opacity:1;filter:url(#filter4653)"
       d="m 136,867.36023 v 0.004 h -64.658181 -33.31055 -5.37109 c -2.5727,0 -4.64454,2.06619 -4.64454,4.63282 v 36.59765 c 0,0.0327 0.0058,0.0642 0.0098,0.0957 l -0.002,14.67187 h -0.02344 v 9 1 10 35 1 1 6.85938 1.14062 1 h 0.0098 v 0.002 l -0.0039,19.74603 h -0.0059 v 0 31.6875 c 0,2.5289 2.04901,4.5644 4.59375,4.5644 h 5.45313 33.33203 72.566381 c 1.38809,0 2.74353,-0.1474 4.05078,-0.4257 0.32696,-0.07 0.65179,-0.1465 0.97266,-0.2325 0.64113,-0.1717 1.27043,-0.3769 1.88477,-0.6113 0.30744,-0.1173 0.61199,-0.2426 0.9121,-0.375 4.20151,-1.853 7.66425,-5.1578 9.82032,-9.3203 0.61602,-1.1893 1.12615,-2.4482 1.51562,-3.7637 0.58421,-1.9732 0.89844,-6.2519 0.89844,-6.2519 v -1.1465 -14.127 -20.74798 -8 -1 -46 -1 -7.86133 -1.13867 -33.87305 c 0,-0.22437 -0.009,-0.44727 -0.0156,-0.66992 v -0.002 -0.39258 c 0,-2.1876 -0.31423,-4.29656 -0.89844,-6.27734 -0.38947,-1.32052 -0.89961,-2.58351 -1.51563,-3.77735 -2.31036,-4.47744 -6.12004,-7.96598 -10.73242,-9.73242 -0.30745,-0.11778 -0.61728,-0.22782 -0.93164,-0.33008 -0.62932,-0.2047 -1.27122,-0.37769 -1.92578,-0.51758 -0.32696,-0.0699 -0.65564,-0.13246 -0.98828,-0.18554 -0.97531,-0.15564 -1.97506,-0.23463 -2.99219,-0.23828 v -0.006 h -8 z"
       id="rect4136-4-4-4"
       inkscape:connector-curvature="0"
       sodipodi:nodetypes="ccccssscccccccccccccccccssccsccscssccccccccccsccssscccscccc" />
    <path
       style="fill:#646464;fill-opacity:1;stroke:#000000;stroke-width:0;stroke-linejoin:round;stroke-miterlimit:4;stroke-dasharray:none;stroke-opacity:1"
       d="m 28.000024,1009.1116 v 31.6881 c 0,2.5289 2.04815,4.5645 4.59289,4.5645 h 5.4537 33.33121 72.568096 c 11.11,0 20.05414,-20.9799 20.05414,-20.9799 v -15.2727 z"
       id="rect4136-4-4"
       inkscape:connector-curvature="0"
       sodipodi:nodetypes="cssccsccc" />
    <path
       inkscape:connector-curvature="0"
       style="fill:#919191;fill-opacity:1;stroke:#000000;stroke-width:0;stroke-linejoin:round;stroke-miterlimit:4;stroke-dasharray:none;stroke-opacity:1"
       d="m 32.659259,867.36418 c -2.5727,0 -4.64364,2.06608 -4.64364,4.63271 v 36.59821 c 0,0.05 0.009,0.097 0.0137,0.146 H 163.98408 v -20.31655 c 0,-11.6672 -8.94417,-21.06037 -20.05418,-21.06037 h -72.589171 -33.30974 -5.37172 z"
       id="rect4136-4-3-3"
       sodipodi:nodetypes="sssccsscccs" />
    <path
       inkscape:connector-curvature="0"
       style="fill:#757575;fill-opacity:1;stroke:#000000;stroke-width:0;stroke-linejoin:round;stroke-miterlimit:4;stroke-dasharray:none;stroke-opacity:1"
       d="m 32.674874,868.36679 c -2.57269,0 -4.64365,2.07213 -4.64365,4.6463 l -0.0312,166.75181 c 0,2.5461 2.04816,4.5955 4.5929,4.5955 h 5.4537 33.33121 72.568086 c 11.11,0 20.05414,-9.4208 20.05414,-21.1223 V 889.48901 c 0,-11.70146 -8.94414,-21.12222 -20.05414,-21.12222 h -72.589556 -33.30974 -5.37172 z"
       id="rect4136-40"
       sodipodi:nodetypes="sccsccsssscccs" />
    <rect
       style="fill:#70bf73;fill-opacity:1;stroke:#000000;stroke-width:0;stroke-linecap:butt;stroke-linejoin:round;stroke-miterlimit:4;stroke-dasharray:none;stroke-opacity:1"
       id="rect4167-1-3"
       width="135.99998"
       height="63.859638"
       x="27.999998"
       y="919.50256"
       ry="0" />
    <path
       inkscape:connector-curvature="0"
       style="fill:url(#linearGradient4280);fill-opacity:1;stroke:#000000;stroke-width:0;stroke-linejoin:round;stroke-miterlimit:4;stroke-dasharray:none;stroke-opacity:1"
       d="m 28.007783,993.36157 51.587813,50.99753 h 64.338054 c 4.14882,0 7.99573,-1.3147 11.1875,-3.5703 l 5.70703,-6.1719 c 1.99199,-3.2827 3.16015,-7.1798 3.16015,-11.3808 l 8e-5,-29.87453 h -0.008 -135.972817 z"
       id="rect4136-40-9"
       sodipodi:nodetypes="ccsccscccc"
       clip-path="none"
       mask="none" />
    <rect
       style="fill:#44964b;fill-opacity:1;stroke:#000000;stroke-width:0;stroke-linecap:butt;stroke-linejoin:round;stroke-miterlimit:4;stroke-dasharray:none;stroke-opacity:1"
       id="rect4167-1-1"
       width="135.99998"
       height="46"
       x="27.999998"
       y="947.36218"
       ry="0" />
    <rect
       style="fill:#4caf50;fill-opacity:1;stroke:#000000;stroke-width:0;stroke-linecap:butt;stroke-linejoin:round;stroke-miterlimit:4;stroke-dasharray:none;stroke-opacity:1"
       id="rect4167-1"
       width="135.99998"
       height="71.999992"
       x="28.000006"
       y="920.36218"
       ry="0" />
    <rect
       style="fill:#424242;fill-opacity:1;stroke:none;stroke-width:0;stroke-linecap:butt;stroke-linejoin:round;stroke-miterlimit:4;stroke-dasharray:none;stroke-opacity:1"
       id="rect4307-5"
       width="8"
       height="178.00073"
       x="136"
       y="867.36182" />
  </g>
  <g
     inkscape:groupmode="layer"
     id="layer2"
     inkscape:label="nqq Text"
     style="display:none">
    <text
       transform="translate(0,-860.3622)"
       xml:space="preserve"
       style="font-style:normal;font-variant:normal;font-weight:normal;font-stretch:normal;line-height:0%;font-family:sans-serif;-inkscape-font-specification:sans-serif;letter-spacing:0px;word-spacing:0px;fill:#e0e0e0;fill-opacity:1;stroke:none;stroke-width:1px;stroke-linecap:butt;stroke-linejoin:miter;stroke-opacity:1"
       x="47.724609"
       y="968.44812"
       id="text4303-0"><tspan
         sodipodi:role="line"
         id="tspan4305-8"
         x="47.724609"
         y="968.44812"
         style="font-style:normal;font-variant:normal;font-weight:normal;font-stretch:normal;font-size:45px;line-height:1.25;font-family:Verdana;-inkscape-font-specification:Verdana;letter-spacing:0px;fill:#e0e0e0;fill-opacity:1">nqq</tspan></text>
  </g>
  <g
     style="display:inline"
     inkscape:label="nqq Path"
     id="g5316"
     inkscape:groupmode="layer">
    <g
       aria-label="nqq"
       transform="translate(0,-860.3622)"
       style="font-style:normal;font-variant:normal;font-weight:normal;font-stretch:normal;font-size:40px;line-height:125%;font-family:sans-serif;-inkscape-font-specification:sans-serif;letter-spacing:0px;word-spacing:0px;fill:#e0e0e0;fill-opacity:1;stroke:none;stroke-width:1px;stroke-linecap:butt;stroke-linejoin:miter;stroke-opacity:1"
       id="text5314">
      <path
         d="m 72.312012,968.44812 h -4.13086 v -13.97461 q 0,-1.69189 -0.197754,-3.16406 -0.197753,-1.49414 -0.725097,-2.3291 -0.549317,-0.92285 -1.582031,-1.36231 -1.032715,-0.46142 -2.680665,-0.46142 -1.691894,0 -3.537597,0.83496 -1.845703,0.83496 -3.537598,2.13134 v 18.3252 h -4.130859 v -24.54346 h 4.130859 v 2.72461 q 1.933594,-1.604 3.999024,-2.50488 2.065429,-0.90088 4.240722,-0.90088 3.977051,0 6.064453,2.39502 2.087403,2.39502 2.087403,6.89941 z"
         style="font-style:normal;font-variant:normal;font-weight:normal;font-stretch:normal;font-size:45px;font-family:Verdana;-inkscape-font-specification:Verdana;letter-spacing:0px;fill:#e0e0e0;fill-opacity:1"
         id="path5318" />
      <path
         d="m 100.17334,977.50085 h -4.13086 v -11.82128 q -1.911621,1.64794 -3.801269,2.46093 -1.889649,0.79102 -4.086914,0.79102 -4.372559,0 -6.987305,-3.36182 -2.592773,-3.38379 -2.592773,-9.3164 0,-3.16407 0.900879,-5.58106 0.922851,-2.43896 2.416992,-4.08691 1.450195,-1.60401 3.405762,-2.48291 1.955566,-0.87891 4.130859,-0.87891 1.977539,0 3.493652,0.43945 1.538086,0.43946 3.120117,1.29639 l 0.263672,-1.05469 h 3.867188 z m -4.13086,-15.29296 v -13.88672 q -1.713867,-0.76905 -3.032226,-1.07666 -1.318359,-0.30762 -2.856445,-0.30762 -3.581543,0 -5.449219,2.43896 -1.867676,2.417 -1.867676,6.67969 0,4.30664 1.494141,6.63574 1.516113,2.30713 4.746093,2.30713 1.801758,0 3.603516,-0.76904 1.801758,-0.79102 3.361816,-2.02148 z"
         style="font-style:normal;font-variant:normal;font-weight:normal;font-stretch:normal;font-size:45px;font-family:Verdana;-inkscape-font-specification:Verdana;letter-spacing:0px;fill:#e0e0e0;fill-opacity:1"
         id="path5320" />
      <path
         d="m 128.21045,977.50085 h -4.13086 v -11.82128 q -1.91162,1.64794 -3.80127,2.46093 -1.88965,0.79102 -4.08691,0.79102 -4.37256,0 -6.98731,-3.36182 -2.59277,-3.38379 -2.59277,-9.3164 0,-3.16407 0.90088,-5.58106 0.92285,-2.43896 2.41699,-4.08691 1.45019,-1.60401 3.40576,-2.48291 1.95557,-0.87891 4.13086,-0.87891 1.97754,0 3.49365,0.43945 1.53809,0.43946 3.12012,1.29639 l 0.26367,-1.05469 h 3.86719 z m -4.13086,-15.29296 v -13.88672 q -1.71387,-0.76905 -3.03223,-1.07666 -1.31836,-0.30762 -2.85644,-0.30762 -3.58154,0 -5.44922,2.43896 -1.86768,2.417 -1.86768,6.67969 0,4.30664 1.49414,6.63574 1.51612,2.30713 4.7461,2.30713 1.80176,0 3.60351,-0.76904 1.80176,-0.79102 3.36182,-2.02148 z"
         style="font-style:normal;font-variant:normal;font-weight:normal;font-stretch:normal;font-size:45px;font-family:Verdana;-inkscape-font-specification:Verdana;letter-spacing:0px;fill:#e0e0e0;fill-opacity:1"
         id="path5322" />
    </g>
  </g>
  <g
     inkscape:groupmode="layer"
     id="layer3"
     inkscape:label="Light"
     style="display:inline">
    <path
       transform="translate(0,-860.3622)"
       style="fill:url(#radialGradient4193);fill-opacity:1;stroke:#000000;stroke-width:0;stroke-linejoin:round;stroke-miterlimit:4;stroke-dasharray:none;stroke-opacity:1"
       d="m 32.660024,867.36417 c -2.5727,0 -4.64453,2.06618 -4.64453,4.63281 v 36.59766 c 0,0.0327 0.006,0.0642 0.01,0.0957 l -0.004,23.67188 h -0.0215 v 1 45 1 1 h 0.01173 l -0.006,28.74998 h -0.006 v 31.6875 c 0,2.5289 2.049,4.5645 4.59374,4.5645 h 5.45315 33.33202 72.566676 c 11.11,0 20.05468,-20.9805 20.05468,-20.9805 v -1.1465 -42.87498 h 2.8e-4 v -1 -46 -1 h -2.8e-4 v -42.87305 c 0,-0.22477 -0.009,-0.44688 -0.0156,-0.66992 v -0.39453 c 0,-11.6672 -8.94468,-21.06055 -20.05469,-21.06055 h -72.588166 -33.31055 -5.37108 z"
       id="rect4136-4-4-5"
       inkscape:connector-curvature="0"
       sodipodi:nodetypes="cssccccccccccssccsccccccccscsscccc" />
  </g>
</svg>
