<svg version="1.1" viewBox="0 0 24 24" xmlns="http://www.w3.org/2000/svg">
    <defs>
        <style type="text/css" id="current-color-scheme">.ColorScheme-Text {
        color:#232629;
      }</style>
    </defs>
    <path class="ColorScheme-Text" fill="currentColor" d="m 20,12 c 0,1.441714 -0.382922,2.789289 -1.044922,3.955078 l -0.738281,-0.738281 0.002,-0.002 -2.777344,-2.779297 0.707031,-0.707031 2.480469,2.482422 C 18.861583,13.515315 19,12.776088 19,12 19,8.12203 15.878,5 12,5 10.8375,5 9.746103,5.285828 8.783203,5.783203 L 8.044922,5.044922 C 9.210722,4.382871 10.5583,4 12,4 c 4.432,0 8,3.568034 8,8 z m -4.044922,6.955078 C 14.789278,19.617129 13.4417,20 12,20 7.568,20 4,16.431966 4,12 4,10.558286 4.382922,9.210711 5.044922,8.044922 l 0.683594,0.683594 0.002,-0.00195 2.828125,2.828126 L 7.851609,12.261723 5.373094,9.783207 C 5.139079,10.480549 5,11.221736 5,12 c 0,3.87797 3.122,7 7,7 1.1625,0 2.253897,-0.285829 3.216797,-0.783203 z"/>
</svg>
