<?xml version="1.0" encoding="UTF-8" standalone="no"?>
<!-- Created with Inkscape (http://www.inkscape.org/) -->

<svg
   xmlns:dc="http://purl.org/dc/elements/1.1/"
   xmlns:cc="http://creativecommons.org/ns#"
   xmlns:rdf="http://www.w3.org/1999/02/22-rdf-syntax-ns#"
   xmlns:svg="http://www.w3.org/2000/svg"
   xmlns="http://www.w3.org/2000/svg"
   xmlns:xlink="http://www.w3.org/1999/xlink"
   xmlns:sodipodi="http://sodipodi.sourceforge.net/DTD/sodipodi-0.dtd"
   xmlns:inkscape="http://www.inkscape.org/namespaces/inkscape"
   width="720.82001"
   height="720.82001"
   id="svg5107"
   version="1.1"
   inkscape:version="0.48.0 r9654"
   sodipodi:docname="notepadqq.svg">
  <defs
     id="defs5109">
    <linearGradient
       inkscape:collect="always"
       xlink:href="#linearGradient2873"
       id="linearGradient5028"
       x1="301.65262"
       y1="77.063858"
       x2="302.71622"
       y2="139.44009"
       gradientUnits="userSpaceOnUse"
       gradientTransform="matrix(0.36375344,0,0,0.36375344,128.81743,433.09205)" />
    <linearGradient
       id="linearGradient2873">
      <stop
         id="stop2875"
         offset="0"
         style="stop-color:#939393;stop-opacity:1;" />
      <stop
         id="stop2877"
         offset="1"
         style="stop-color:#424242;stop-opacity:1;" />
    </linearGradient>
    <linearGradient
       inkscape:collect="always"
       xlink:href="#linearGradient2873"
       id="linearGradient5044"
       x1="301.65262"
       y1="77.063858"
       x2="302.71622"
       y2="139.44009"
       gradientUnits="userSpaceOnUse"
       gradientTransform="matrix(0.36375344,0,0,0.36375344,193.59828,81.0826)" />
    <linearGradient
       id="linearGradient5046">
      <stop
         id="stop5048"
         offset="0"
         style="stop-color:#ffffff;stop-opacity:1;" />
      <stop
         id="stop5050"
         offset="1"
         style="stop-color:#b9dca6;stop-opacity:1;" />
    </linearGradient>
    <linearGradient
       gradientTransform="translate(204.98422,293.40873)"
       inkscape:collect="always"
       xlink:href="#linearGradient5004"
       id="linearGradient5016"
       x1="-20.620478"
       y1="138.4054"
       x2="20.387278"
       y2="174.04897"
       gradientUnits="userSpaceOnUse" />
    <linearGradient
       id="linearGradient5004">
      <stop
         style="stop-color:#de9649;stop-opacity:1;"
         offset="0"
         id="stop5006" />
      <stop
         style="stop-color:#3d250b;stop-opacity:1;"
         offset="1"
         id="stop5008" />
    </linearGradient>
    <linearGradient
       gradientTransform="translate(204.98422,293.40873)"
       inkscape:collect="always"
       xlink:href="#linearGradient2974"
       id="linearGradient4982"
       x1="337.03647"
       y1="-206.09035"
       x2="363.9678"
       y2="-184.30818"
       gradientUnits="userSpaceOnUse" />
    <linearGradient
       id="linearGradient2974">
      <stop
         id="stop2976"
         offset="0"
         style="stop-color:#c1c1c1;stop-opacity:1;" />
      <stop
         style="stop-color:#f3f3f3;stop-opacity:1;"
         offset="0.5"
         id="stop4984" />
      <stop
         id="stop2978"
         offset="1"
         style="stop-color:#cacaca;stop-opacity:1;" />
    </linearGradient>
    <linearGradient
       gradientTransform="translate(204.98422,293.40873)"
       inkscape:collect="always"
       xlink:href="#linearGradient2994"
       id="linearGradient4969"
       x1="395.65427"
       y1="-215.20293"
       x2="334.40469"
       y2="-280.54947"
       gradientUnits="userSpaceOnUse" />
    <linearGradient
       id="linearGradient2994">
      <stop
         id="stop2996"
         offset="0"
         style="stop-color:#000000;stop-opacity:1;" />
      <stop
         id="stop2998"
         offset="1"
         style="stop-color:#c9c9c9;stop-opacity:1;" />
    </linearGradient>
    <linearGradient
       gradientTransform="translate(204.98422,293.40873)"
       inkscape:collect="always"
       xlink:href="#linearGradient2994"
       id="linearGradient4957"
       x1="176.37828"
       y1="4.4867916"
       x2="99.522011"
       y2="-66.800331"
       gradientUnits="userSpaceOnUse" />
    <linearGradient
       id="linearGradient5066">
      <stop
         id="stop5068"
         offset="0"
         style="stop-color:#000000;stop-opacity:1;" />
      <stop
         id="stop5070"
         offset="1"
         style="stop-color:#c9c9c9;stop-opacity:1;" />
    </linearGradient>
    <linearGradient
       id="linearGradient5073">
      <stop
         id="stop5075"
         offset="0"
         style="stop-color:#000000;stop-opacity:1;" />
      <stop
         id="stop5077"
         offset="1"
         style="stop-color:#c9c9c9;stop-opacity:1;" />
    </linearGradient>
    <linearGradient
       id="linearGradient5084">
      <stop
         id="stop5086"
         offset="0"
         style="stop-color:#939393;stop-opacity:1;" />
      <stop
         id="stop5088"
         offset="1"
         style="stop-color:#424242;stop-opacity:1;" />
    </linearGradient>
    <linearGradient
       id="linearGradient2966">
      <stop
         id="stop2968"
         offset="0"
         style="stop-color:#ffd1d1;stop-opacity:1;" />
      <stop
         style="stop-color:#ff1d1d;stop-opacity:1;"
         offset="0.5"
         id="stop3006" />
      <stop
         id="stop2970"
         offset="1"
         style="stop-color:#6f0000;stop-opacity:1;" />
    </linearGradient>
    <linearGradient
       inkscape:collect="always"
       xlink:href="#linearGradient2873"
       id="linearGradient5277"
       gradientUnits="userSpaceOnUse"
       gradientTransform="matrix(0.36375344,0,0,0.36375344,128.81743,433.09205)"
       x1="301.65262"
       y1="77.063858"
       x2="302.71622"
       y2="139.44009" />
    <linearGradient
       inkscape:collect="always"
       xlink:href="#linearGradient5046"
       id="linearGradient5793"
       x1="27.939529"
       y1="33.832268"
       x2="511.31018"
       y2="729.57697"
       gradientUnits="userSpaceOnUse"
       gradientTransform="translate(68.446958,34.042553)" />
    <linearGradient
       inkscape:collect="always"
       xlink:href="#linearGradient2873"
       id="linearGradient3188"
       gradientUnits="userSpaceOnUse"
       gradientTransform="matrix(0.36375344,0,0,0.36375344,128.81743,433.09205)"
       x1="301.65262"
       y1="77.063858"
       x2="302.71622"
       y2="139.44009" />
  </defs>
  <sodipodi:namedview
     id="base"
     pagecolor="#ffffff"
     bordercolor="#666666"
     borderopacity="1.0"
     inkscape:pageopacity="0.0"
     inkscape:pageshadow="2"
     inkscape:zoom="0.66449955"
     inkscape:cx="283.45515"
     inkscape:cy="364.95138"
     inkscape:document-units="px"
     inkscape:current-layer="layer1"
     showgrid="false"
     inkscape:window-width="1366"
     inkscape:window-height="692"
     inkscape:window-x="0"
     inkscape:window-y="24"
     inkscape:window-maximized="1"
     fit-margin-top="0.1"
     fit-margin-left="0.1"
     fit-margin-right="0"
     fit-margin-bottom="0"
     units="px" />
  <metadata
     id="metadata5112">
    <rdf:RDF>
      <cc:Work
         rdf:about="">
        <dc:format>image/svg+xml</dc:format>
        <dc:type
           rdf:resource="http://purl.org/dc/dcmitype/StillImage" />
        <dc:title />
      </cc:Work>
    </rdf:RDF>
  </metadata>
  <g
     inkscape:label="Livello 1"
     inkscape:groupmode="layer"
     id="layer1"
     transform="translate(-35.850169,-54.220822)">
    <rect
       style="fill:url(#linearGradient5793);fill-opacity:1;fill-rule:nonzero;stroke:#000000;stroke-opacity:1"
       id="rect5275"
       width="498.26425"
       height="719.71509"
       x="92.131172"
       y="54.82579" />
    <text
       xml:space="preserve"
       style="font-size:40px;font-style:normal;font-weight:normal;line-height:125%;letter-spacing:0px;word-spacing:0px;fill:#000000;fill-opacity:1;stroke:none;font-family:Sans"
       x="142.68489"
       y="443.8457"
       id="text5843"
       sodipodi:linespacing="125%"><tspan
         sodipodi:role="line"
         id="tspan5845"
         x="142.68489"
         y="443.8457"
         style="font-size:190px;fill:#0e5c00;fill-opacity:0.42745098">nqq</tspan></text>
    <g
       id="g5247"
       transform="matrix(0.94449057,-0.32853853,0.32853853,0.94449057,116.27729,213.95504)">
      <path
         sodipodi:nodetypes="sssssscssssscsssscssscscssssssssscsscssscsscscssssscssscsssscsssssssssssssscsscsscssssscssssscccssssssssssscsssssssscssssssscssssssssccssssccsscssscssssssssssscssccssssssssscsssscssscsssscccsssssscscccsssscccsscscsscssscsc"
         inkscape:connector-curvature="0"
         id="path4808"
         d="m 159.7862,491.59876 c 0,-0.92767 3.0375,-5.97438 6.75,-11.2149 13.25496,-18.71056 16.13402,-22.89124 18.8221,-27.33158 3.17726,-5.2484 2.76424,-4.61557 14.22819,-21.80032 10.04909,-15.06385 -8.89487,4.3818 205.26358,-210.69968 C 527.48397,97.38983 574.60211,50.745639 579.23771,47.918769 c 1.67667,-1.02246 3.67623,-1.8607 4.44346,-1.86275 0.76723,-0.002 6.05473,4.58171 11.75,10.18616 13.3207,13.108271 13.42443,13.857771 3.35503,24.242391 -3.85,3.97052 -7,7.48046 -7,7.79987 0,0.3194 -11.09464,11.53533 -24.65475,24.92429 -13.56012,13.38895 -93.66429,93.47253 -178.00928,177.96351 L 235.76765,444.7922 200.02692,468.59582 c -19.65739,13.09198 -36.75322,24.00296 -37.99072,24.24661 -1.61911,0.31879 -2.25,-0.0299 -2.25,-1.24367 z m 48.29934,-31.44692 24.54585,-16.40043 -2.67259,-3.36668 c -1.46993,-1.85168 -5.45921,-5.63258 -8.86506,-8.40202 -3.40585,-2.76943 -7.52921,-6.55781 -9.16303,-8.41863 l -2.97059,-3.38331 -8.30077,12.68576 c -4.56542,6.97716 -8.26504,12.91075 -8.22138,13.18575 0.0437,0.275 -0.7087,1.052 -1.67192,1.72667 -0.96323,0.67467 -2.05792,2.44827 -2.43266,3.94133 -0.37473,1.49306 -2.37556,4.76606 -4.44627,7.27333 -2.07072,2.50727 -4.05918,5.23367 -4.4188,6.05867 -0.35962,0.825 -1.44244,2.625 -2.40626,4 -1.70086,2.42649 -4.32401,3.41934 -2.49685,1.97106 1.73782,-1.37747 1.65571,-0.89152 2.78641,0.18821 1.22073,1.16571 1.20473,1.07882 2.40654,2.12315 0.94029,0.81708 1.54949,1.41884 2.02804,2.20729 0.61296,1.0099 0.83236,1.26426 1.31457,1.08092 0.48221,-0.18333 11.48455,-7.45083 24.98477,-16.47107 z M 387.45489,288.94609 c 84.05722,-84.2084 152.70861,-153.539 152.55865,-154.06799 -0.47845,-1.68768 -13.64884,-16.33601 -14.45386,-16.07582 -0.42541,0.1375 -0.66098,-0.11084 -0.52348,-0.55186 0.1375,-0.44103 -1.49792,-2.34069 -3.63426,-4.22148 l -3.88426,-3.4196 -83.41241,83.97147 C 388.11953,240.87477 319.16759,310.15032 280.64038,348.76647 l -70.05247,70.21418 11.34915,11.49675 c 6.24202,6.3232 11.65005,11.51432 12.01783,11.53581 0.36778,0.0215 69.44278,-68.85872 153.5,-153.06712 z M 552.21954,125.2013 c 5.85272,-6.12701 25.56805,-25.70594 34.31183,-34.07445 3.83582,-3.67119 4.10506,-4.23229 2.79208,-5.81877 -0.7992,-0.96569 -2.75871,-3.42551 -4.35448,-5.46626 l -2.90138,-3.71047 -3.11321,2.29685 c -1.71226,1.26327 -8.21309,7.54548 -14.44628,13.96047 -6.23319,6.41498 -11.89711,11.66361 -12.5865,11.66361 -0.68939,0 -0.97335,0.45318 -0.63103,1.00706 0.34231,0.55389 -0.13545,1.29788 -1.06171,1.65332 -0.92626,0.35544 -3.54229,2.68236 -5.81339,5.17093 -5.58684,6.12183 -9.69519,9.72042 -10.75289,9.41869 -1.73545,-0.49506 -0.82183,1.42808 1.93165,4.06608 l 2.80803,2.69027 2.19197,-2.04213 c 1.20558,-1.12317 2.19197,-1.6297 2.19197,-1.12562 0,0.50408 -0.675,1.47671 -1.5,2.1614 -1.93264,1.60395 -1.89437,2.90674 0.15179,5.16773 1.96635,2.17279 2.05935,2.11226 10.78155,-7.01871 z m -3.93334,-3.14902 c 0.33992,-0.55 -0.0354,-1 -0.83399,-1 -2.07274,0 -2.75264,-2.49927 -1.24193,-4.56528 1.51717,-2.07486 4.57592,-1.30191 4.57592,1.15634 0,1.35669 0.2695,1.43016 1.5,0.40894 2.42558,-2.01305 1.71613,0.44833 -0.81445,2.82569 -2.38757,2.243 -4.27636,2.93928 -3.18555,1.17431 z m 5.5,-8.80383 c 0,-0.44211 1.64903,-2.35461 3.66451,-4.25 l 3.6645,-3.44617 -2.9145,4.22865 c -2.74343,3.98042 -4.41451,5.29303 -4.41451,3.46752 z m 8.01065,-7.74322 c 0.0138,-1.23138 6.86731,-7.90832 7.48425,-7.29138 0.25761,0.25761 -1.32335,2.21797 -3.51326,4.35636 -2.1899,2.13838 -3.97685,3.45914 -3.97099,2.93502 z m 11.98935,-7.45295 c 0,-0.55 0.47656,-1 1.05902,-1 0.58246,0 0.7809,0.45 0.44098,1 -0.33992,0.55 -0.81648,1 -1.05902,1 -0.24254,0 -0.44098,-0.45 -0.44098,-1 z m 3.35727,-3.48866 c 0.34545,-0.90022 0.0198,-1.51134 -0.80532,-1.51134 -1.57408,0 -2.48098,-1.89184 -1.79765,-3.75 0.66038,-1.79575 3.91982,-1.5416 4.65054,0.36262 0.50116,1.30599 0.9018,1.37779 2.10699,0.37756 1.92755,-1.59972 1.89672,-0.54334 -0.0718,2.46104 -1.84691,2.81873 -4.98063,4.39999 -4.08274,2.06012 z m -36.68497,17.25993 c 5.44762,-5.38288 8.3277,-8.99382 8.3277,-10.44098 0,-2.70497 1.91274,-4.08951 3.06779,-2.22061 0.63018,1.01965 2.56647,-0.50542 7.63819,-6.01602 3.73671,-4.06007 9.72181,-10.35457 13.30021,-13.9878 3.57841,-3.63322 6.07591,-6.26836 5.55,-5.85586 -1.71849,1.34792 -2.37982,0.79177 -1.78367,-1.5 0.51629,-1.98481 0.20154,-1.86695 -2.67054,1 -3.09154,3.08601 -5.10198,4.0899 -5.10198,2.54761 0,-0.38632 1.36932,-2.11518 3.04294,-3.84192 2.72848,-2.81507 2.87831,-3.27616 1.44982,-4.4617 -1.33047,-1.10419 -1.84319,-1.07213 -3.10979,0.19447 -0.83416,0.83416 -1.61173,2.14551 -1.72793,2.9141 -0.11621,0.76859 -0.58021,1.9883 -1.03112,2.71045 -0.50533,0.80931 -0.14736,2.0561 0.93311,3.25 1.62046,1.79059 1.62549,1.93699 0.0666,1.93699 -0.9275,0 -1.94539,0.675 -2.26197,1.5 -0.31659,0.825 -1.2809,1.5 -2.14293,1.5 -1.20646,0 -1.00914,-0.60719 0.85699,-2.63718 1.7206,-1.87167 2.04935,-2.77072 1.13257,-3.09724 -1.00308,-0.35726 -1.0271,-0.77894 -0.1075,-1.88699 0.65133,-0.78481 0.90108,-1.71008 0.555,-2.05617 -0.34609,-0.34608 0.28179,-2.10333 1.39528,-3.905 1.91792,-3.10327 1.93128,-3.32794 0.2536,-4.26681 -1.4828,-0.82982 -4.21402,1.42838 -16.78778,13.88031 -8.25927,8.17925 -18.97891,18.62639 -23.82141,23.21586 -8.49417,8.05033 -8.73823,8.40453 -6.92291,10.04737 1.78323,1.61381 1.99977,1.57712 4.14038,-0.70146 2.20962,-2.35203 6.66807,-4.34177 5.50237,-2.45563 -0.32311,0.5228 0.006,1.71834 0.73139,2.65675 1.18857,1.53765 1.11538,1.53347 -0.741,-0.0423 -1.97706,-1.67822 -2.14693,-1.65583 -4.22577,0.557 -1.67754,1.78565 -1.89691,2.5745 -0.97291,3.4985 1.60926,1.60926 3.2921,1.50147 4.793,-0.307 0.68469,-0.825 1.95222,-1.5 2.81672,-1.5 0.98334,0 0.41036,0.85692 -1.53041,2.28876 -2.44204,1.80169 -2.89844,2.65294 -2.14459,4 0.52672,0.94118 1.46284,1.71124 2.08027,1.71124 0.61744,0 4.87008,-3.70293 9.45031,-8.22873 z m -2.12959,-1.70217 c -0.31644,-0.512 -0.19299,-1.1672 0.27431,-1.45601 0.46731,-0.28881 0.84965,0.13009 0.84965,0.9309 0,1.68617 -0.31534,1.83349 -1.12396,0.52511 z m -5.41159,-2.41111 c -0.61257,-0.7381 -0.81767,-1.6381 -0.45578,-2 0.3619,-0.36189 -0.11856,-0.65799 -1.06769,-0.65799 -0.96924,0 -1.4363,-0.46823 -1.06552,-1.06817 0.3631,-0.5875 1.28965,-0.82662 2.05902,-0.53139 0.76937,0.29524 1.39885,0.14906 1.39885,-0.32484 0,-0.47389 -0.72568,-1.14009 -1.61262,-1.48044 -1.21594,-0.4666 -1.34107,-0.94603 -0.50868,-1.949 0.60717,-0.7316 0.80785,-1.62627 0.44596,-1.98817 -0.3619,-0.36189 -0.11887,-0.65799 0.54006,-0.65799 0.65893,0 1.45707,0.675 1.77365,1.5 0.69715,1.81672 2.36163,1.99198 2.36163,0.24867 0,-1.45905 18.33655,-19.74867 19.79935,-19.74867 0.54267,0 1.24569,-0.675 1.56228,-1.5 0.31658,-0.825 1.33447,-1.5 2.26197,-1.5 1.54595,0 1.53707,-0.16497 -0.10662,-1.98124 -1.46733,-1.62137 -1.56406,-2.25711 -0.53255,-3.5 0.69325,-0.83532 1.85003,-1.51876 2.57063,-1.51876 1.95825,0 2.81395,3.84459 1.27756,5.73995 -0.95464,1.17768 -0.97807,1.43096 -0.0826,0.89299 0.6875,-0.41303 1.25,-0.27442 1.25,0.30804 -2e-5,0.58246 -0.47658,1.05902 -1.05904,1.05902 -0.58246,0 -0.7511,0.49821 -0.37477,1.10713 0.46045,0.74503 -0.0108,0.88652 -1.44098,0.43262 -1.95288,-0.61982 -2.60119,0.12237 -2.27784,2.60769 0.0463,0.35609 -0.81961,0.41108 -1.92431,0.12219 -1.70651,-0.44626 -1.93753,-0.13362 -1.53629,2.07907 0.25973,1.43237 0.16646,2.5616 -0.20727,2.50939 -1.81472,-0.25352 -2.16549,0.29961 -1.26135,1.98901 0.80187,1.4983 0.22321,2.64358 -3.06433,6.06493 -3.75734,3.91027 -4.18091,4.10196 -5.80874,2.62879 -0.99659,-0.90191 -2.48531,-1.30913 -3.44275,-0.94172 -1.97124,0.75644 -1.50579,3.05365 0.52265,2.57947 1.07635,-0.25161 1.11271,-0.0545 0.16738,0.90762 -0.92975,0.94625 -1.5344,0.95784 -2.62786,0.0504 -1.14055,-0.94657 -1.53001,-0.75891 -1.97767,0.95292 -0.40465,1.54742 -0.027,2.27032 1.37786,2.63771 1.06441,0.27835 1.93529,1.15516 1.93529,1.94848 0,0.79331 0.41891,1.18348 0.9309,0.86705 0.512,-0.31643 1.18914,-0.15749 1.50476,0.3532 0.31563,0.51069 -0.13926,0.82386 -1.01086,0.69594 -0.87161,-0.12793 -1.94428,-0.81434 -2.38372,-1.52537 -0.64528,-1.04409 -0.90326,-1.03056 -1.34108,0.0704 -0.42422,1.06673 -0.55927,1.0785 -0.62105,0.0541 -0.0439,-0.72719 -0.5921,-0.99187 -1.23346,-0.59549 -0.68907,0.42587 -0.88407,0.27594 -0.48369,-0.37189 0.96035,-1.55386 -0.95141,-2.44873 -2.05646,-0.96259 -0.5067,0.68144 -0.84413,2.25149 -0.74984,3.48899 0.19987,2.62324 0.0686,2.70692 -1.42438,0.90799 z m 13.74132,-12.34522 c -1.19198,-1.46538 -1.15744,-1.60679 0.26275,-1.07544 1.04544,0.39114 2.63323,-0.42995 4.40245,-2.27662 2.31375,-2.41503 2.55833,-3.14015 1.49237,-4.42455 -0.93672,-1.12868 -0.9615,-1.53616 -0.0934,-1.53616 0.64981,0 0.91773,-0.42673 0.59538,-0.9483 -0.32234,-0.52156 -2.426,1.04779 -4.67481,3.48746 -2.2552,2.4466 -4.59735,4.14484 -5.22293,3.78704 -0.62382,-0.35678 -0.0433,0.54886 1.2901,2.01255 2.66638,2.92697 4.13332,3.6604 1.94813,0.97402 z m -2.74104,7.18784 c -2.36768,-1.30279 -2.36779,-1.30373 -0.27251,-2.42509 1.7933,-0.95974 2.00257,-0.87807 1.44867,0.56539 -0.3876,1.01006 -0.24479,1.43833 0.35583,1.06712 0.5518,-0.34103 1.00328,0.0351 1.00328,0.83596 0,0.8008 -0.0375,1.41189 -0.0833,1.35796 -0.0458,-0.0539 -1.1492,-0.68453 -2.45193,-1.40134 z M 560.7862,84.1113 c 0,-0.51754 0.44485,-1.21592 0.98855,-1.55194 0.56686,-0.35034 0.7345,0.0511 0.39301,0.94098 -0.66479,1.73242 -1.38156,2.04939 -1.38156,0.61096 z m 42.96545,-14.03013 c -0.0521,-2.30372 -18.42514,-21.028891 -20.63347,-21.028891 -1.04202,0 -4.50581,2.63876 -7.69731,5.86391 l -5.80273,5.863921 5.68159,5.38608 c 3.12488,2.96235 6.24858,5.71007 6.94157,6.10605 0.69298,0.39598 2.98426,3.22356 5.09173,6.28351 l 3.83175,5.56354 6.31071,-6.25462 c 3.47089,-3.44004 6.29516,-6.94261 6.27616,-7.7835 z"
         style="fill:#000000;fill-opacity:1" />
      <path
         inkscape:connector-curvature="0"
         id="path4933"
         d="m 404.32042,223.39057 c -64.74828,65.08876 -129.49971,130.17438 -194.24504,195.26609 6.53964,8.38584 15.35961,16.07594 23.1745,23.73143 10.43664,-8.4404 19.78691,-19.2173 29.77278,-28.57486 91.81906,-91.08706 183.51177,-182.35585 273.66163,-275.07613 1.76597,-1.80108 5.41292,-4.40867 2.16584,-6.74505 -6.76142,-7.61318 -13.74292,-16.07941 -21.50371,-22.15346 -37.67533,37.85066 -75.35067,75.70132 -113.026,113.55198 z"
         style="fill:url(#linearGradient4957);fill-opacity:1;stroke:none" />
      <path
         inkscape:connector-curvature="0"
         id="path4961"
         d="m 582.38354,48.854679 c -5.62236,2.04692 -8.9246,7.95889 -13.42821,11.695541 6.20423,7.83549 15.43885,14.08254 21.00866,23.0198 3.42446,1.46218 6.28838,-3.63665 8.63243,-5.53836 2.32985,-3.09374 8.02629,-8.25548 3.37252,-11.97401 -5.7876,-6.00567 -10.83503,-13.606331 -18.53342,-17.202971 -0.34817,-0.0472 -0.7038,-0.0472 -1.05198,0 z"
         style="fill:url(#linearGradient4969);fill-opacity:1;stroke:none" />
      <path
         id="path4971"
         d="m 567.35922,62.50248 c -8.47128,4.21193 -14.51165,12.75367 -21.71875,18.9375 -8.7904,9.08806 -18.64241,17.44847 -26.375,27.375 -0.3835,3.98073 5.82648,1.90997 5.84375,1.8125 -3.07645,3.31442 1.79968,5.82367 4.21875,4.4375 -2.16924,2.23938 0.0781,7.44488 3.125,4.90625 7.2198,-5.66753 13.68762,-12.91646 18.75,-20.28125 6.26401,-1.28815 10.10808,-8.27112 14.9375,-12.125 3.86075,-5.04029 9.99649,-9.21165 11.78125,-15.4375 -0.36384,-4.01908 -4.37835,-0.87167 -5.53125,0.90625 -2.61792,1.78026 2.79301,-3.3132 2.09375,-5.46875 -1.83118,-3.86416 -5.54014,-0.0879 -6.71875,2.03125 1.04486,-2.58293 3.76582,-7.25457 -0.40625,-7.09375 z m -5.5,7.84375 c 2.53243,0.93774 1.54637,5.90277 0.59375,7.40625 -2.25317,-0.38524 -3.41453,1.37046 -4.09375,2.90625 -4.03429,-0.54365 -3.80934,5.56492 -4.4375,6.875 0.4274,-3.06466 -2.63265,-3.34009 -4.21875,-1.0625 -2.621,2.03516 5.08446,-5.09319 7.1875,-6.71875 1.16576,-2.16546 7.07198,-2.47327 4.5,-5.78125 -1.79898,-0.79151 -1.59235,-3.44773 0.46875,-3.625 z m 5.1875,2.28125 c 0.4106,2.19258 0.38854,5.79007 -1.71875,6.34375 1.95457,-1.4037 1.30201,-5.38906 1.71875,-6.34375 z m 14.6875,3.28125 -0.125,0.0312 c -15.19077,11.85877 -27.94089,26.80537 -42.28125,39.6875 -1.78203,2.66593 -5.98354,3.85524 -6.75,6.75 1.26652,2.60442 4.66818,6.01263 6.9375,6 -1.49095,3.4115 4.09242,8.05424 6.4375,3.90625 15.24122,-14.60297 30.43068,-29.49618 44.78125,-44.96875 -1.38948,-4.42058 -5.12701,-8.53427 -8.6875,-11.40625 l -0.3125,0 z m -5.5,13.40625 c 2.73426,0.29099 6.74224,2.00847 2.75,4.25 -0.37072,2.99479 -5.54009,-4.49387 -2.75,-4.25 z m -33.1875,3.5625 c 0.0269,-0.003 0.0161,0.0387 0,0.125 1.36481,2.52236 -0.0731,1.40258 -1.9375,2.4375 -1.64527,1.40375 1.76073,3.8904 -1.375,2.875 -3.57013,0.50327 -0.29705,5.4395 0.125,5.8125 -1.76948,-0.95027 -3.61231,-4.37849 -5.25,-0.75 -1.01527,1.78397 -0.97973,3.27109 -2.5625,1.25 -2.14438,-0.94225 3.95712,-0.49755 1.59375,-2.78125 -1.5885,-1.22391 -0.54169,-5.30356 0.90625,-1.84375 3.49875,1.37816 4.92237,-4.61825 7.5,-6.03125 -0.26439,0.82366 0.81191,-1.07491 1,-1.09375 z m 8.09375,0.375 c 0.0188,-0.002 0.004,0.0349 -0.0625,0.125 -0.40299,1.00479 -3.60509,4.02973 -3.09375,1.59375 1.00979,0.29508 3.02441,-1.70182 3.15625,-1.71875 z m -22,14.6875 c 0.24521,0.44894 -0.87933,-0.007 0,0 z m 19.5,8.84375 c 1.7016,-0.06 1.6722,3.15386 3.03125,2.6875 -1.67113,5.0547 -8.71549,-2.15296 -3.03125,-2.6875 z"
         style="fill:url(#linearGradient4982);fill-opacity:1;stroke:none"
         inkscape:connector-curvature="0" />
      <path
         inkscape:connector-curvature="0"
         id="path4988"
         d="m 208.06424,420.24235 c -10.86119,16.48672 -21.56277,33.0802 -32.61139,49.44307 1.94208,2.40041 4.80182,7.20468 8.01362,7.64232 16.16717,-11.0799 33.45137,-20.85074 48.48391,-33.3849 1.82853,-3.378 -3.9948,-5.50396 -5.44555,-8.04455 -5.91311,-5.32161 -11.34552,-11.56397 -17.9146,-15.93441 l -0.52599,0.27847 z"
         style="fill:url(#linearGradient5016);fill-opacity:1;stroke:none" />
      <text
         transform="matrix(0.7025646,-0.71161997,0.71161997,0.7025646,0,0)"
         sodipodi:linespacing="125%"
         id="text5018"
         y="473.78198"
         x="199.4072"
         style="font-size:14.55013752px;font-style:normal;font-weight:normal;line-height:125%;letter-spacing:0px;word-spacing:0px;fill:url(#linearGradient3188);fill-opacity:1;stroke:none;font-family:Sans"
         xml:space="preserve"><tspan
           style="fill:url(#linearGradient3188);fill-opacity:1;font-family:URW Bookman L;-inkscape-font-specification:URW Bookman L"
           y="473.78198"
           x="199.4072"
           id="tspan5020"
           sodipodi:role="line">notepadqq</tspan></text>
    </g>
  </g>
</svg>
